<?xml version="1.0" encoding="UTF-8" standalone="no"?>
<svg
   width="700pt"
   height="700pt"
   version="1.1"
   viewBox="0 0 700 700"
   id="svg416"
   sodipodi:docname="brennan.svg"
   inkscape:version="1.2 (dc2aedaf03, 2022-05-15)"
   xmlns:inkscape="http://www.inkscape.org/namespaces/inkscape"
   xmlns:sodipodi="http://sodipodi.sourceforge.net/DTD/sodipodi-0.dtd"
   xmlns:xlink="http://www.w3.org/1999/xlink"
   xmlns="http://www.w3.org/2000/svg"
   xmlns:svg="http://www.w3.org/2000/svg">
  <defs
     id="defs420" />
  <sodipodi:namedview
     id="namedview418"
     pagecolor="#ffffff"
     bordercolor="#000000"
     borderopacity="0.25"
     inkscape:showpageshadow="2"
     inkscape:pageopacity="0.0"
     inkscape:pagecheckerboard="0"
     inkscape:deskcolor="#d1d1d1"
     inkscape:document-units="pt"
     showgrid="false"
     inkscape:zoom="0.89678571"
     inkscape:cx="467.22421"
     inkscape:cy="467.22421"
     inkscape:window-width="1920"
     inkscape:window-height="1017"
     inkscape:window-x="-8"
     inkscape:window-y="-8"
     inkscape:window-maximized="1"
     inkscape:current-layer="svg416" />
  <g
     id="g414"
     transform="matrix(1.5142378,0,0,1.5142378,-203.60307,-95.98708)">
    <path
       d="m 135.07,63.391 c 0.89453,6.3281 4.0312,38.754 7.6719,43.23 0,0 7.2227,4.0312 13.496,9.9102 6.2734,5.8789 8.1211,31.527 17.586,35.168 9.4648,3.6406 13.047,21.617 30.184,33.77 17.137,12.152 19.824,13.496 22.512,22.062 2.688,8.566 6.3281,17.586 6.3281,17.586 0,0 6.7188,0.67187 12.992,5.1523 6.2734,4.4805 18.258,9.4648 21.223,10.641 4.1445,1.5664 10.863,4.1992 10.863,4.1992 0,0 -9.5195,-9.2383 -14,-16.465 -4.4805,-7.2227 -8.5664,-15.68 -14.84,-22.457 -6.2734,-6.7773 -9.9102,-25.258 -22.062,-35.168 -12.152,-9.9102 -17.137,-26.602 -26.602,-31.977 -9.4648,-5.4336 -20.719,-18.48 -24.305,-25.703 -3.5859,-7.2227 -16.238,-24.305 -22.512,-28.391 -6.3828,-3.9727 -18.535,-21.559 -18.535,-21.559 z"
       id="path316" />
    <path
       d="m 188.21,99.457 c -0.44922,7.6719 14.391,14.391 17.586,23.855 3.1367,9.4648 21.168,26.152 31.078,36.512 9.91,10.36 29.734,27.496 32.426,41.887 2.6875,14.391 3.6406,28.504 14.449,36.176 10.809,7.6172 28.785,20.609 28.785,20.609 0,0 19.375,-48.215 26.152,-54.488 6.7773,-6.3281 10.023,-10.809 11.312,-17.586 1.2891,-6.7773 9.8555,-13.496 9.8555,-13.496 0,0 -2.6875,-4.0312 -18.93,-13.496 -16.238,-9.4648 -23.574,-17.191 -51.297,-17.137 -27.719,0.0547 -48.719,-28.336 -57.23,-31.023 -8.625,-2.7969 -35.617,-4.1992 -44.188,-11.812 z"
       id="path318" />
    <path
       d="m 136.86,121.52 c 6.3281,0.89453 20.719,19.375 25.258,30.633 4.4805,11.258 9.9102,15.734 18.48,22.961 8.5664,7.2227 10.359,16.238 14.84,22.512 4.4805,6.3281 17.137,14.391 21.168,24.305 0,0 -10.809,-2.2383 -16.016,-4.4805 -7.7266,-3.2461 -18.648,-18.984 -23.855,-24.359 -5.207,-5.4336 -7.4492,-3.5859 -17.359,-8.1211 -9.9102,-4.4805 -24.305,3.5859 -24.305,3.5859 0,0 0,-27.945 2.2383,-36.512 2.2383,-8.457 -0.44922,-30.523 -0.44922,-30.523 z"
       id="path320" />
    <path
       d="m 139.55,202.55 c 5.7109,-8.2305 12.824,-4.5352 23.91,-2.8555 11.09,1.6797 18.48,12.992 22.566,19.711 4.1445,6.7188 10.305,11.594 18.145,12.488 7.84,0.894 17.977,0.39062 25.648,7.6719 7.6172,7.3359 40.711,12.992 46.648,18.93 5.937,5.938 33.152,7.6719 37.91,11.871 5.4336,4.8164 10.246,7.3906 10.246,7.3906 0,0 -1.1211,-17.641 6.2734,-28.168 7.3906,-10.527 13.664,-20.777 17.078,-29.625 3.4141,-8.8477 9.1836,-12.266 11.871,-16.52 2.6875,-4.2578 9.5195,-12.824 10.922,-19.938 14.504,4.5352 29.512,37.406 36.062,45.359 -2.0156,10.527 -7.168,10.137 -11.145,15.625 -3.9766,5.4883 -3.8086,15.625 -8.9609,19.879 -5.1523,4.2578 -7.2812,20.887 -7.6172,30.07 20.832,6.5508 30.91,16.855 41.719,19.711 10.809,2.8555 21.953,7.3906 27.609,11.09 5.7109,3.6953 35.336,14.785 43.289,16.801 7.9531,2.0156 10.527,3.6953 18.535,8.5664 7.9531,4.8164 19.938,5.1523 24.473,14.223 4.5352,9.1289 1.7344,11.984 13.945,19.938 12.266,7.9531 16.633,11.258 23.184,13.273 6.551,2.015 4.4258,6.1055 10.695,11.816 6.2734,5.7109 2.8555,14.113 3.1914,17.527 -10.527,-5.9922 -15.289,-3.8086 -29.344,-14.504 -13.273,-10.137 -13.832,-8.0078 -25.816,-17.414 -11.984,-9.4062 -23.184,-11.535 -35.168,-14.953 -22.23,-2.8555 -42.449,-16.238 -57.23,-21.336 -14.785,-5.1523 -37.297,-17.078 -47.824,-19.656 -10.527,-2.5742 -16.801,-3.1367 -16.801,-3.1367 0,0 -3.9766,15.961 -4.8164,23.633 -0.8398,7.672 1.3984,21.617 6.2734,32.762 4.8164,11.09 13.664,33.602 2.5742,44.406 -9.9688,-11.984 -14.336,-18.199 -24.809,-20.777 -10.473,-2.5742 -22.457,-5.7109 -22.457,-5.7109 0,0 -2.8555,-29.344 -5.7109,-39.312 -2.8555,-9.9688 -7.9531,-13.105 -8.2305,-25.648 -0.28125,-12.543 0.67188,-34.441 0.67188,-34.441 0,0 -29.734,-11.367 -34.273,-15.961 -4.5352,-4.5352 -15.062,-1.7344 -28.449,-8.2305 -13.383,-6.5508 -13.105,-11.09 -24.473,-12.543 -11.367,-1.3984 -23.352,1.2891 -28.168,-3.4141 -4.6484,-4.5352 -11.09,-18.367 -19.656,-22.793 -16.574,-8.5117 -42.449,-1.3984 -42.449,-1.3984 0.0156,0.004 0.57422,-37.012 -0.043,-44.406 z"
       id="path322" />
    <path
       d="m 390.99,284.65 c 1.1211,-13.105 8.457,-14.168 9.2969,-23.238 0.83984,-9.1289 8.0625,-10.695 11.762,-16.129 3.6953,-5.4336 3.4727,-9.6328 3.4727,-9.6328 0,0 5.0391,1.3984 16.742,-2.0156 11.648,-3.4141 20.496,-5.543 31.305,7.3359 10.809,12.879 23.07,37.352 30.742,46.48 7.6719,9.1289 23.07,29.902 21.953,29.344 -1.1211,-0.55859 -12.543,-0.83984 -25.031,0 -12.488,0.83984 -19.656,-8.0078 -30.184,-8.5664 -10.527,-0.55859 -29.902,2.0156 -35.336,-4.2578 -5.434,-6.2734 -9.1289,-10.922 -17.359,-12.711 -8.2344,-1.8516 -17.363,-6.6094 -17.363,-6.6094 z"
       id="path324" />
    <path
       d="m 491.68,331.57 c 8.2305,3.7539 12.207,9.6875 21.895,10.527 9.6875,0.83984 16.07,6.5508 16.07,6.5508 0,0 -4.4258,-22.457 -5.2656,-22.457 -0.8398,0 0.39062,-1.7344 -5.0391,-3.4141 -5.4883,-1.7344 -8.0625,4.1445 -16.07,2.7422 -7.9531,-1.3984 -18.762,-2.6328 -25.871,-6.1055 -7.1133,-3.4727 -16.238,-4.0898 -23.688,-2.2383 10.922,8.4609 25.875,8.8516 37.969,14.395 z"
       id="path326" />
    <path
       d="m 431.98,368.82 c 10.809,6.2734 26.039,8.3438 32.031,13.719 5.9922,5.4336 26.039,11.871 36.008,13.047 9.9688,1.1211 22.512,3.4141 30.742,10.527 8.23,7.1129 9.1289,13.945 17.359,15.398 8.2305,1.3984 18.535,6.832 23.352,10.809 4.8164,3.9766 9.1289,5.4336 13.664,4.8164 9.9102,11.816 14.223,33.77 9.9688,40.434 -2.3516,3.6406 0.61719,20.273 0.28125,24.246 -0.28125,3.9766 -6.2734,11.367 -13.383,9.9102 2.5742,-5.4336 9.4062,-9.1289 3.9766,-13.664 -5.4336,-4.5352 -10.246,-9.4062 -15.961,-16.238 -5.7109,-6.832 -11.984,-23.633 -26.77,-33.039 -14.786,-9.406 -27.887,-16.238 -37.297,-28.785 -9.4062,-12.543 -11.984,-11.648 -28.223,-18.48 -16.238,-6.8281 -38.023,-22.73 -45.75,-32.699 z"
       id="path328" />
    <path
       d="m 386.18,353.47 c 12.266,10.809 43.848,30.129 60.648,40.434 13.496,8.2305 21.336,22.23 32.199,23.633 10.809,1.3984 20.777,12.266 22.289,13.215 11.648,6.832 40.879,23.238 44.91,32.367 -17.641,-5.4336 -27.328,2.2969 -43.289,2.5742 -15.961,0.28125 -40.992,0.55859 -54.098,-11.648 -13.105,-12.266 -11.648,-17.078 -21.336,-13.551 -9.6875,3.5859 -13.664,11.816 -18.535,11.258 -4.8164,-0.55859 -14.391,-5.9922 -14.391,-5.9922 0,0 -1.5117,-14.281 0.16797,-29.625 0.72656,-6.7188 -8.8477,-29.062 -11.984,-41.551 -3.1328,-12.602 3.418,-21.113 3.418,-21.113 z"
       id="path330" />
    <path
       d="m 300.27,342.16 c 3.2461,24.305 16.969,43.121 15.734,66.023 -17.863,-3.4141 -21.391,-5.7695 -25.984,-7.5039 -4.5352,-1.7344 -8.3984,-3.0781 -13.496,-0.55859 -5.0977,2.5195 -12.879,1.9023 -19.266,-1.2891 -11.031,-5.4883 -22.289,-9.8008 -31.695,-12.375 -9.406,-2.5742 -17.922,-7.1133 -17.922,-7.1133 0,0 7.1133,-9.1289 16.52,-8.2305 9.4062,0.89453 20.215,-3.9766 32.199,-12.824 11.934,-8.793 30.188,-14.672 43.91,-16.129 z"
       id="path332" />
    <path
       d="m 137.03,359.18 c 10.809,-0.28125 15.68,3.9766 22.512,1.7344 6.832,-2.2383 15.68,-1.1211 21.055,3.6953 5.4336,4.8164 16.633,7.6172 16.633,7.6172 0,0 5.8789,-9.2969 19.375,-11.871 13.551,-2.5742 22.961,-7.2227 31.191,-12.824 8.5117,-5.7695 28.785,-12.266 35.895,-13.945 7.1133,-1.6797 14.223,0.83984 18.199,-6.6641 3.9766,-7.5586 8.8477,-11.535 8.8477,-11.535 0,0 -8.1758,-1.3438 -16.465,-3.9219 -8.2891,-2.5742 -14.223,-3.1914 -19.32,0.39062 -5.1523,3.5859 -28,3.8633 -36.68,13.383 -8.8477,9.6328 -40.656,18.031 -73.305,21.168 -7.1133,0.67188 -20.215,4.2578 -21.617,4.8164 -1.5039,0.50781 -6.3203,7.957 -6.3203,7.957 z"
       id="path334" />
    <path
       d="m 134.46,342.16 c 0,-0.61719 0.16797,-27.609 0.61719,-34.105 0.44922,-6.5508 2.5195,-18.367 1.1758,-25.816 -1.3438,-7.3906 -0.67188,-17.527 -0.67188,-17.527 0,0 5.7109,1.3438 11.648,0 5.9371,-1.3438 24.977,1.1758 28.617,4.5938 7.7852,7.2227 15.793,19.207 34.441,19.152 5.0977,0 12.152,2.3516 20.16,5.6562 8.0078,3.3047 27.16,6.4414 31.414,11.031 0,0 -10.641,3.6406 -17.359,3.0234 -6.6641,-0.61719 -29.793,16.969 -46.871,18.816 -8.2891,0.89453 -15.289,6.1055 -23.016,4.8711 -7.6758,-1.1211 -31.871,7.3359 -40.156,10.305 z"
       id="path336" />
    <use
       x="70"
       y="644"
       xlink:href="#v"
       id="use338" />
    <use
       x="90.550781"
       y="644"
       xlink:href="#d"
       id="use340" />
    <use
       x="104.35938"
       y="644"
       xlink:href="#a"
       id="use342" />
    <use
       x="123.34766"
       y="644"
       xlink:href="#k"
       id="use344" />
    <use
       x="142.24219"
       y="644"
       xlink:href="#c"
       id="use346" />
    <use
       x="155.62891"
       y="644"
       xlink:href="#a"
       id="use348" />
    <use
       x="174.61719"
       y="644"
       xlink:href="#j"
       id="use350" />
    <use
       x="204.41016"
       y="644"
       xlink:href="#i"
       id="use352" />
    <use
       x="224.45312"
       y="644"
       xlink:href="#f"
       id="use354" />
    <use
       x="252.45312"
       y="644"
       xlink:href="#h"
       id="use356" />
    <use
       x="275.69531"
       y="644"
       xlink:href="#b"
       id="use358" />
    <use
       x="294.92969"
       y="644"
       xlink:href="#e"
       id="use360" />
    <use
       x="304.52734"
       y="644"
       xlink:href="#e"
       id="use362" />
    <use
       x="314.125"
       y="644"
       xlink:href="#f"
       id="use364" />
    <use
       x="342.125"
       y="644"
       xlink:href="#u"
       id="use366" />
    <use
       x="365.55859"
       y="644"
       xlink:href="#b"
       id="use368" />
    <use
       x="384.79688"
       y="644"
       xlink:href="#e"
       id="use370" />
    <use
       x="394.39062"
       y="644"
       xlink:href="#g"
       id="use372" />
    <use
       x="423.57031"
       y="644"
       xlink:href="#a"
       id="use374" />
    <use
       x="442.55859"
       y="644"
       xlink:href="#t"
       id="use376" />
    <use
       x="70"
       y="672"
       xlink:href="#s"
       id="use378" />
    <use
       x="82.183594"
       y="672"
       xlink:href="#d"
       id="use380" />
    <use
       x="95.992188"
       y="672"
       xlink:href="#b"
       id="use382" />
    <use
       x="115.22656"
       y="672"
       xlink:href="#g"
       id="use384" />
    <use
       x="154.15234"
       y="672"
       xlink:href="#c"
       id="use386" />
    <use
       x="167.53516"
       y="672"
       xlink:href="#r"
       id="use388" />
    <use
       x="187.46875"
       y="672"
       xlink:href="#a"
       id="use390" />
    <use
       x="216.20703"
       y="672"
       xlink:href="#q"
       id="use392" />
    <use
       x="239.64062"
       y="672"
       xlink:href="#b"
       id="use394" />
    <use
       x="258.87891"
       y="672"
       xlink:href="#p"
       id="use396" />
    <use
       x="278.8125"
       y="672"
       xlink:href="#o"
       id="use398" />
    <use
       x="308.49219"
       y="672"
       xlink:href="#n"
       id="use400" />
    <use
       x="329.01562"
       y="672"
       xlink:href="#d"
       id="use402" />
    <use
       x="342.82031"
       y="672"
       xlink:href="#b"
       id="use404" />
    <use
       x="362.05859"
       y="672"
       xlink:href="#m"
       id="use406" />
    <use
       x="371.65625"
       y="672"
       xlink:href="#a"
       id="use408" />
    <use
       x="390.64844"
       y="672"
       xlink:href="#l"
       id="use410" />
    <use
       x="407.24219"
       y="672"
       xlink:href="#c"
       id="use412" />
  </g>
</svg>
