<?xml version="1.0" encoding="UTF-8" standalone="no"?>
<svg
   width="700pt"
   height="700pt"
   version="1.1"
   viewBox="0 0 700 700"
   id="svg82"
   sodipodi:docname="noun-starfleet-1301196.svg"
   inkscape:version="1.2 (dc2aedaf03, 2022-05-15)"
   xmlns:inkscape="http://www.inkscape.org/namespaces/inkscape"
   xmlns:sodipodi="http://sodipodi.sourceforge.net/DTD/sodipodi-0.dtd"
   xmlns:xlink="http://www.w3.org/1999/xlink"
   xmlns="http://www.w3.org/2000/svg"
   xmlns:svg="http://www.w3.org/2000/svg">
  <defs
     id="defs86" />
  <sodipodi:namedview
     id="namedview84"
     pagecolor="#ffffff"
     bordercolor="#000000"
     borderopacity="0.25"
     inkscape:showpageshadow="2"
     inkscape:pageopacity="0.0"
     inkscape:pagecheckerboard="0"
     inkscape:deskcolor="#d1d1d1"
     inkscape:document-units="pt"
     showgrid="false"
     inkscape:zoom="0.89678571"
     inkscape:cx="467.22421"
     inkscape:cy="247.55078"
     inkscape:window-width="1920"
     inkscape:window-height="1017"
     inkscape:window-x="-8"
     inkscape:window-y="-8"
     inkscape:window-maximized="1"
     inkscape:current-layer="svg82" />
  <g
     id="g80"
     transform="matrix(1.4457057,0,0,1.4457057,-169.78542,-56.674568)">
    <path
       d="m 359.39,39.371 c 2.1328,0.4375 4.3633,1.7305 6.7031,4.1836 4.3086,4.5078 7.7578,9.8789 10.98,15.195 10.328,17.082 18.43,35.559 26.062,53.965 10.367,25 19.547,50.512 28.008,76.215 9.5117,28.867 18.094,58.047 25.703,87.469 7.4961,28.973 14.082,58.215 19.145,87.723 4.3594,25.418 7.7578,51.156 8.332,76.977 0.14844,6.6484 0.0898,13.312 -0.27734,19.961 0.24219,-4.4141 -9.6328,-16.879 -11.91,-21.098 -5.8242,-10.797 -11.594,-21.629 -17.98,-32.117 -10.625,-17.461 -24.555,-40.352 -44.812,-48.523 -26.605,-10.73 -124.12,88.828 -150.03,119.3 -12.699,14.93 -25.219,30.012 -38.117,44.773 1.1562,-44.043 4.8477,-88.012 10.84,-131.66 5.4805,-39.883 12.871,-79.508 22.219,-118.67 8.0703,-33.797 17.574,-67.273 28.902,-100.12 8.9102,-25.848 18.883,-51.434 30.887,-76.02 7.8672,-16.117 16.477,-32.637 28.176,-46.363 5.1289,-6.0078 10.715,-12.504 17.168,-11.188 z m -3.2227,76.016 -5.7773,121.41 h -18.371 l 14.965,11.078 -5.8711,17.711 15.242,-10.984 14.867,10.984 -5.6797,-17.52 14.961,-11.27 h -18.559 z"
       fill-rule="evenodd"
       id="path2" />
    <use
       x="70"
       y="644"
       xlink:href="#x"
       id="use4" />
    <use
       x="90.550781"
       y="644"
       xlink:href="#b"
       id="use6" />
    <use
       x="104.35938"
       y="644"
       xlink:href="#a"
       id="use8" />
    <use
       x="123.34766"
       y="644"
       xlink:href="#d"
       id="use10" />
    <use
       x="142.24219"
       y="644"
       xlink:href="#c"
       id="use12" />
    <use
       x="155.62891"
       y="644"
       xlink:href="#a"
       id="use14" />
    <use
       x="174.61719"
       y="644"
       xlink:href="#k"
       id="use16" />
    <use
       x="204.41016"
       y="644"
       xlink:href="#j"
       id="use18" />
    <use
       x="224.45312"
       y="644"
       xlink:href="#i"
       id="use20" />
    <use
       x="252.45312"
       y="644"
       xlink:href="#h"
       id="use22" />
    <use
       x="275.88281"
       y="644"
       xlink:href="#d"
       id="use24" />
    <use
       x="294.78125"
       y="644"
       xlink:href="#b"
       id="use26" />
    <use
       x="308.58594"
       y="644"
       xlink:href="#w"
       id="use28" />
    <use
       x="328.63281"
       y="644"
       xlink:href="#d"
       id="use30" />
    <use
       x="347.52344"
       y="644"
       xlink:href="#v"
       id="use32" />
    <use
       x="366.87109"
       y="644"
       xlink:href="#u"
       id="use34" />
    <use
       x="387.03906"
       y="644"
       xlink:href="#t"
       id="use36" />
    <use
       x="396.63281"
       y="644"
       xlink:href="#g"
       id="use38" />
    <use
       x="416.57031"
       y="644"
       xlink:href="#s"
       id="use40" />
    <use
       x="436.60938"
       y="644"
       xlink:href="#f"
       id="use42" />
    <use
       x="70"
       y="672"
       xlink:href="#r"
       id="use44" />
    <use
       x="82.183594"
       y="672"
       xlink:href="#b"
       id="use46" />
    <use
       x="95.992188"
       y="672"
       xlink:href="#e"
       id="use48" />
    <use
       x="115.22656"
       y="672"
       xlink:href="#q"
       id="use50" />
    <use
       x="154.15234"
       y="672"
       xlink:href="#c"
       id="use52" />
    <use
       x="167.53516"
       y="672"
       xlink:href="#f"
       id="use54" />
    <use
       x="187.46875"
       y="672"
       xlink:href="#a"
       id="use56" />
    <use
       x="216.20703"
       y="672"
       xlink:href="#p"
       id="use58" />
    <use
       x="239.64062"
       y="672"
       xlink:href="#e"
       id="use60" />
    <use
       x="258.87891"
       y="672"
       xlink:href="#o"
       id="use62" />
    <use
       x="278.8125"
       y="672"
       xlink:href="#g"
       id="use64" />
    <use
       x="308.49219"
       y="672"
       xlink:href="#n"
       id="use66" />
    <use
       x="329.01562"
       y="672"
       xlink:href="#b"
       id="use68" />
    <use
       x="342.82031"
       y="672"
       xlink:href="#e"
       id="use70" />
    <use
       x="362.05859"
       y="672"
       xlink:href="#m"
       id="use72" />
    <use
       x="371.65625"
       y="672"
       xlink:href="#a"
       id="use74" />
    <use
       x="390.64844"
       y="672"
       xlink:href="#l"
       id="use76" />
    <use
       x="407.24219"
       y="672"
       xlink:href="#c"
       id="use78" />
  </g>
</svg>
