<?xml version="1.0" encoding="UTF-8" standalone="no"?>
<svg
   width="700pt"
   height="700pt"
   version="1.1"
   viewBox="0 0 700 700"
   id="svg98"
   sodipodi:docname="cory.svg"
   inkscape:version="1.2 (dc2aedaf03, 2022-05-15)"
   xmlns:inkscape="http://www.inkscape.org/namespaces/inkscape"
   xmlns:sodipodi="http://sodipodi.sourceforge.net/DTD/sodipodi-0.dtd"
   xmlns:xlink="http://www.w3.org/1999/xlink"
   xmlns="http://www.w3.org/2000/svg"
   xmlns:svg="http://www.w3.org/2000/svg">
  <defs
     id="defs102" />
  <sodipodi:namedview
     id="namedview100"
     pagecolor="#ffffff"
     bordercolor="#000000"
     borderopacity="0.25"
     inkscape:showpageshadow="2"
     inkscape:pageopacity="0.0"
     inkscape:pagecheckerboard="0"
     inkscape:deskcolor="#d1d1d1"
     inkscape:document-units="pt"
     showgrid="false"
     inkscape:zoom="0.89678571"
     inkscape:cx="467.22421"
     inkscape:cy="467.22421"
     inkscape:window-width="1920"
     inkscape:window-height="1017"
     inkscape:window-x="-8"
     inkscape:window-y="-8"
     inkscape:window-maximized="1"
     inkscape:current-layer="svg98" />
  <g
     id="g96"
     transform="matrix(1.3244177,0,0,1.3244177,-113.76979,-22.254475)">
    <path
       d="m 596.64,388.32 c 19.09,59.586 34.051,109.8 -17.105,126.88 -33.539,11.199 -89.539,16.801 -229.54,16.801 -140.001,0 -196,-5.6016 -229.66,-16.801 -82.105,-27.32 8.4023,-141.92 8.4023,-243.9 0,-126.02 69.023,-225.45 187.66,-241.14 0,20.441 0.004,39.441 0.004,39.441 0,0 -0.0117,59.238 -0.0117,77.141 0,9.9297 11.203,9.9297 11.203,0 0,-18.305 0.008,-59.715 0.008,-72.973 -0.008,-0.05469 -0.008,-0.10938 -0.008,-0.16406 v -52 c 0,-6.4023 44.777,-6.4023 44.777,0 v 7.3477 l 0.0273,0.0039 c 0,20.887 0.004,40.645 0.004,40.645 0,0 -0.0117,59.238 -0.0117,77.141 0,9.9297 11.203,9.9297 11.203,0 0,-21.957 0.008,-77.141 0.008,-77.141 0,0 0,-19.051 -0.004,-39.422 118.56,15.738 187.54,115.15 187.54,241.12 0,10.223 0.94141,20.598 2.5469,31.016 0.38672,0.16797 0.77344,0.34375 1.1602,0.52344 28.473,13.277 41.078,46.762 28.094,75.004 -1.7695,3.793 -3.8867,7.3008 -6.2969,10.48 z m -145.87,50.945 c 0,-6.4023 -22.379,-6.4023 -22.379,0 0,24.836 0.0234,24.688 0.0234,24.688 0,0 -0.0234,15.773 -0.0234,27.312 0,6.3984 22.379,6.3984 22.379,0 0,-14.148 0.0234,-27.312 0.0234,-27.312 0,0 -0.0234,-11.738 -0.0234,-24.688 z m -44.801,-28 c 0,-6.4023 -22.375,-6.4023 -22.375,0 0,13.637 0.0195,41.488 0.0195,41.488 0,0 -0.0195,26.973 -0.0195,38.512 0,6.3984 22.375,6.3984 22.375,0 0,-14.148 0.0234,-38.512 0.0234,-38.512 0,0 -0.0234,-28.539 -0.0234,-41.488 z m -44.797,-22.402 c 0,-6.3984 -22.379,-6.3984 -22.379,0 0,13.637 0.0195,52.688 0.0195,52.688 0,0 -0.0195,38.176 -0.0195,49.715 0,6.3984 22.379,6.3984 22.379,0 0,-14.148 0.0195,-49.715 0.0195,-49.715 0,0 -0.0195,-39.734 -0.0195,-52.688 z m -44.801,22.402 c 0,-6.4023 -22.379,-6.4023 -22.379,0 0,13.637 0.0234,41.488 0.0234,41.488 0,0 -0.0234,26.973 -0.0234,38.512 0,6.3984 22.379,6.3984 22.379,0 0,-14.148 0.0195,-38.512 0.0195,-38.512 0,0 -0.0195,-28.539 -0.0195,-41.488 z m -44.801,28 c 0,-6.4023 -22.379,-6.4023 -22.379,0 0,13.637 0.0234,24.688 0.0234,24.688 0,0 -0.0234,15.773 -0.0234,27.312 0,6.3984 22.379,6.3984 22.379,0 0,-14.148 0.0234,-27.312 0.0234,-27.312 0,0 -0.0234,-11.738 -0.0234,-24.688 z m 214.11,-215.26 c -16.789,0 -32.32,16.781 -51.691,16.781 -14.414,0 -33.824,-16.781 -51.691,-16.781 -5.7461,0 -5.7461,16.781 0,16.781 15.523,0 34.203,16.801 51.691,16.801 17.156,0 34.285,-16.801 51.691,-16.801 5.7461,0 5.7461,-16.781 0,-16.781 z m -231.45,54.16 c 39.074,-4.0312 73.363,-12.637 73.363,-37.363 0,-24.68 -6.9531,-34.742 -61.602,-39.172 -54.648,-4.4297 -61.602,14.445 -61.602,39.172 0,24.727 10.207,41.453 49.84,37.363 z m 249.27,8.1875 c -19.309,-9.0039 -42.031,-0.95703 -50.895,17.926 -2.4453,5.2461 -3.6016,10.867 -3.4648,17.023 -0.0703,2.4062 -0.0156,4.9375 0.16016,7.5898 0.92969,14.047 5.1797,30.883 11.98,49.359 4.3438,11.793 9.4492,23.527 14.852,34.633 1.457,2.9961 4.168,8.3164 4.168,8.3164 0,0 4.7305,-1.1602 8.9219,-2.2109 11.98,-3 24.254,-6.6328 36.078,-10.887 18.527,-6.6641 34.156,-14.23 45.516,-22.551 2.1406,-1.5664 4.1172,-3.1523 6.2891,-5.0664 4.4492,-3.5547 8.0039,-8.0664 10.531,-13.48 8.6562,-18.828 0.18359,-41.336 -19.074,-50.316 -10.199,-4.7539 -21.66,-4.875 -31.68,-0.60156 l -9.5391,4.0625 -3.0156,-9.918 c -3.168,-10.422 -10.629,-19.125 -20.828,-23.879 z"
       fill-rule="evenodd"
       id="path2" />
    <use
       x="70"
       y="644"
       xlink:href="#x"
       id="use4" />
    <use
       x="90.550781"
       y="644"
       xlink:href="#b"
       id="use6" />
    <use
       x="104.35938"
       y="644"
       xlink:href="#a"
       id="use8" />
    <use
       x="123.34766"
       y="644"
       xlink:href="#h"
       id="use10" />
    <use
       x="142.24219"
       y="644"
       xlink:href="#c"
       id="use12" />
    <use
       x="155.62891"
       y="644"
       xlink:href="#a"
       id="use14" />
    <use
       x="174.61719"
       y="644"
       xlink:href="#g"
       id="use16" />
    <use
       x="204.41016"
       y="644"
       xlink:href="#k"
       id="use18" />
    <use
       x="224.45312"
       y="644"
       xlink:href="#j"
       id="use20" />
    <use
       x="252.45312"
       y="644"
       xlink:href="#f"
       id="use22" />
    <use
       x="272.97266"
       y="644"
       xlink:href="#a"
       id="use24" />
    <use
       x="291.96094"
       y="644"
       xlink:href="#c"
       id="use26" />
    <use
       x="305.34766"
       y="644"
       xlink:href="#a"
       id="use28" />
    <use
       x="324.33594"
       y="644"
       xlink:href="#b"
       id="use30" />
    <use
       x="347.89453"
       y="644"
       xlink:href="#w"
       id="use32" />
    <use
       x="367.02344"
       y="644"
       xlink:href="#i"
       id="use34" />
    <use
       x="396.19531"
       y="644"
       xlink:href="#v"
       id="use36" />
    <use
       x="405.79688"
       y="644"
       xlink:href="#u"
       id="use38" />
    <use
       x="425.14062"
       y="644"
       xlink:href="#t"
       id="use40" />
    <use
       x="443.39062"
       y="644"
       xlink:href="#h"
       id="use42" />
    <use
       x="462.28906"
       y="644"
       xlink:href="#e"
       id="use44" />
    <use
       x="491.96875"
       y="644"
       xlink:href="#g"
       id="use46" />
    <use
       x="512.01172"
       y="644"
       xlink:href="#a"
       id="use48" />
    <use
       x="531"
       y="644"
       xlink:href="#e"
       id="use50" />
    <use
       x="560.68359"
       y="644"
       xlink:href="#s"
       id="use52" />
    <use
       x="582.02344"
       y="644"
       xlink:href="#a"
       id="use54" />
    <use
       x="601.01562"
       y="644"
       xlink:href="#b"
       id="use56" />
    <use
       x="614.82422"
       y="644"
       xlink:href="#r"
       id="use58" />
    <use
       x="70"
       y="672"
       xlink:href="#q"
       id="use60" />
    <use
       x="82.183594"
       y="672"
       xlink:href="#b"
       id="use62" />
    <use
       x="95.992188"
       y="672"
       xlink:href="#d"
       id="use64" />
    <use
       x="115.22656"
       y="672"
       xlink:href="#i"
       id="use66" />
    <use
       x="154.15234"
       y="672"
       xlink:href="#c"
       id="use68" />
    <use
       x="167.53516"
       y="672"
       xlink:href="#p"
       id="use70" />
    <use
       x="187.46875"
       y="672"
       xlink:href="#a"
       id="use72" />
    <use
       x="216.20703"
       y="672"
       xlink:href="#o"
       id="use74" />
    <use
       x="239.64062"
       y="672"
       xlink:href="#d"
       id="use76" />
    <use
       x="258.87891"
       y="672"
       xlink:href="#n"
       id="use78" />
    <use
       x="278.8125"
       y="672"
       xlink:href="#e"
       id="use80" />
    <use
       x="308.49219"
       y="672"
       xlink:href="#f"
       id="use82" />
    <use
       x="329.01562"
       y="672"
       xlink:href="#b"
       id="use84" />
    <use
       x="342.82031"
       y="672"
       xlink:href="#d"
       id="use86" />
    <use
       x="362.05859"
       y="672"
       xlink:href="#m"
       id="use88" />
    <use
       x="371.65625"
       y="672"
       xlink:href="#a"
       id="use90" />
    <use
       x="390.64844"
       y="672"
       xlink:href="#l"
       id="use92" />
    <use
       x="407.24219"
       y="672"
       xlink:href="#c"
       id="use94" />
  </g>
</svg>
