<?xml version="1.0" encoding="UTF-8" standalone="no"?>
<svg
   width="700pt"
   height="700pt"
   version="1.1"
   viewBox="0 0 700 700"
   id="svg74"
   sodipodi:docname="johnathan.svg"
   inkscape:version="1.2 (dc2aedaf03, 2022-05-15)"
   xmlns:inkscape="http://www.inkscape.org/namespaces/inkscape"
   xmlns:sodipodi="http://sodipodi.sourceforge.net/DTD/sodipodi-0.dtd"
   xmlns:xlink="http://www.w3.org/1999/xlink"
   xmlns="http://www.w3.org/2000/svg"
   xmlns:svg="http://www.w3.org/2000/svg">
  <defs
     id="defs78" />
  <sodipodi:namedview
     id="namedview76"
     pagecolor="#ffffff"
     bordercolor="#000000"
     borderopacity="0.25"
     inkscape:showpageshadow="2"
     inkscape:pageopacity="0.0"
     inkscape:pagecheckerboard="0"
     inkscape:deskcolor="#d1d1d1"
     inkscape:document-units="pt"
     showgrid="false"
     inkscape:zoom="0.89678571"
     inkscape:cx="467.22421"
     inkscape:cy="479.49024"
     inkscape:window-width="1920"
     inkscape:window-height="1017"
     inkscape:window-x="-8"
     inkscape:window-y="-8"
     inkscape:window-maximized="1"
     inkscape:current-layer="svg74" />
  <g
     id="g72"
     transform="matrix(1.1710151,-1.1835863,1.1835863,1.1710151,-406.3364,449.15886)">
    <path
       d="m 408.3,327.6 c -1.8477,-6.5508 -5.2656,-12.207 -11.09,-18.703 v -0.0547 c 4.8711,-5.8789 7.7852,-10.922 9.5195,-16.969 1.1758,-2.9688 1.793,-6.7188 2.0703,-11.703 l 0.004,-0.17188 c 0.16797,-2.8555 0.22266,-5.7695 0.22266,-8.5117 0,-3.4727 -0.28125,-6.8867 -0.78516,-10.078 l -0.16797,-0.78516 c -3.1914,-18.703 -15.23,-30.07 -29.398,-41.945 -2.1289,-1.793 -7.7852,-5.9922 -14.223,-10.809 -6.4961,-4.8711 -13.719,-10.246 -18.535,-14.055 11.93,-8.6797 24.137,-17.922 32.145,-25.258 13.215,-12.152 21.559,-20.328 26.602,-30.238 5.8242,-11.48 6.2734,-36.734 6.2734,-44.183998 0.0547,-0.55859 0.0547,-1.0625 0.0547,-1.625 0,-5.7695 -1.793,-11.426 -2.4648,-13.551 l -0.16797,-0.50391 c -1.8477,-6.5508 -5.2656,-12.207 -11.09,-18.703 v -0.05469 c 4.8711,-5.8789 7.7852,-10.922 9.5195,-16.969 1.1758,-2.9688 1.793,-6.7188 2.0703,-11.703 0.11328,-1.5664 -1.1211,-2.9102 -2.6875,-3.0234 -1.5117,-0.11328 -2.9102,1.1211 -3.0234,2.6875 0,0.05469 0,0.16797 -0.0547,0.22266 0,0.11328 0,0.16797 -0.0547,0.22266 -0.22266,4.1445 -0.78516,7.2812 -1.7344,9.8008 -1.625,5.7109 -4.3672,10.359 -9.8555,16.742 l -0.0547,0.05469 c -0.16797,0.16797 -0.33594,0.28125 -0.44922,0.44922 -2.1836,2.4648 -4.7617,5.2656 -7.8945,8.3984 l -0.0547,0.05469 c -0.22266,0.22266 -0.44922,0.44922 -0.67188,0.67188 -1.1758,1.1758 -2.4062,2.4648 -3.7539,3.8086 -1.7344,1.7344 -7.0547,6.4961 -14.281,12.77 -0.16797,0.11328 -0.28125,0.22266 -0.44922,0.33594 -9.1289,7.8398 -21.055,17.976998 -32.367,27.327998 -0.16797,0.11328 -0.28125,0.22266 -0.44922,0.33594 -6.6641,5.543 -13.105,10.809 -18.648,15.176 -6.1602,4.8711 -10.863,8.8477 -14.281,12.488 -1.2891,1.2891 -2.3516,2.5742 -3.3047,3.8086 0.16797,-3.5273 0.44922,-6.7773 0.95312,-8.9023 l 0.28125,-1.1211 c 4.1992,-13.551 35.727,-37.800998 46.762,-45.413998 10.359,-7.168 16.238,-11.426 23.633,-17.809 0.22266,-0.22266 0.61719,-0.55859 1.2305,-1.0078 2.4062,-1.9609 4.7617,-3.9219 7,-5.8242 0.11328,-0.05469 0.22266,-0.16797 0.28125,-0.22266 12.879,-11.09 22.121,-21.391 27.551,-30.742 0.0547,-0.11328 0.11328,-0.22266 0.16797,-0.33594 0.11328,-0.16797 0.16797,-0.28125 0.16797,-0.44922 0.0547,-0.05469 0.0547,-0.05469 0.0547,-0.11328 0.0547,-0.16797 0.11328,-0.28125 0.11328,-0.44922 h -0.004 c 0.0547,-0.05469 0.0547,-0.05469 0.0547,-0.11328 0,-0.28125 -0.0547,-0.55859 -0.11328,-0.83984 -0.0547,-0.22266 -0.16797,-0.39062 -0.28125,-0.61719 -0.39062,-0.78125 -1.2852,-1.3984 -2.4062,-1.3984 h -58.965 c -1.5664,0 -2.8555,1.2891 -2.8555,2.8555 0,1.5664 1.2305,2.8555 2.8555,2.8555 h 14.336 c 9.9102,6.4414 16.801,11.09 18.871,12.824 1.9023,1.5117 3.8086,3.0234 5.543,4.5352 -2.2383,2.1289 -4.6484,4.3672 -7.2227,6.6641 -3.6406,-2.1289 -10.586,-5.9375 -18.535,-10.305 -7.7266,-4.1992 -16.52,-9.0156 -23.465,-12.992 -3.1914,-1.8438 -6.3281,-3.8047 -9.4102,-5.8789 -1.2891,-0.89453 -3.0234,-0.55859 -3.9219,0.72656 -0.89453,1.2891 -0.55859,3.0781 0.78516,3.9219 3.1914,2.1836 6.4414,4.1992 9.7422,6.1055 6.9453,3.9766 15.793,8.793 23.52,12.992 6.832,3.6953 12.938,7.0547 16.688,9.2383 -1.2891,1.0625 -2.6328,2.1289 -3.9766,3.2461 -0.67188,0.50391 -1.1211,0.89453 -1.3438,1.1211 -7.2812,6.2148 -12.824,10.246 -23.184,17.414 -0.44922,0.33594 -45.414,31.585998 -49.336,49.894998 l -0.0547,0.33594 c -0.0547,0.28125 -0.16797,0.55859 -0.22266,0.83984 l -0.28125,1.457 h 0.0547 c -0.95312,6.2734 -0.83984,15.961 -0.72656,22.062 0,1.0625 0.0547,2.0156 0.0547,2.8008 v 0.50391 c -0.0547,0.16797 -0.0547,0.39062 -0.0547,0.55859 0,6.9453 4.8711,16.465 13.047,25.48 1.793,1.9609 3.7539,3.9219 5.7695,5.7695 -4.3672,3.9219 -8.2305,8.1758 -10.754,12.824 v 0.0547 c -0.0547,0.0547 -0.0547,0.11328 -0.11328,0.16797 -5.4336,9.6875 -7.9531,22.289 -7.9531,39.594 0,14 15.68,27.609 28.84,36.625 0.0547,0.11328 0.16797,0.11328 0.22266,0.16797 3.1914,2.1836 6.4414,4.1992 9.7422,6.1055 6.9453,3.9766 15.793,8.793 23.52,12.992 6.832,3.6953 12.938,7.0547 16.688,9.2383 -1.2891,1.0625 -2.6328,2.1289 -3.9766,3.2461 -0.67188,0.50391 -1.1211,0.89453 -1.3438,1.1211 -7.2812,6.2148 -12.824,10.246 -23.184,17.414 -0.44922,0.33594 -45.414,31.586 -49.336,49.895 l -0.0547,0.33594 c -0.0547,0.28125 -0.16797,0.55859 -0.22266,0.83984 l -0.28125,1.457 h 0.0547 c -0.95312,6.2734 -0.83984,15.961 -0.72656,22.062 0,1.0625 0.0547,2.0156 0.0547,2.8008 v 0.50391 c -0.0547,0.16797 -0.0547,0.39062 -0.0547,0.55859 0,6.9453 4.8711,16.465 13.047,25.48 1.793,1.9609 3.7539,3.9219 5.7695,5.7695 -4.3672,3.9219 -8.2305,8.1758 -10.754,12.824 v 0.0547 c -0.0547,0.0547 -0.0547,0.11327 -0.11328,0.16797 -5.4336,9.6875 -7.9531,22.289 -7.9531,39.594 0,14.055 15.793,27.777 29.062,36.734 0.57422,0.17578 1.1367,0.34375 1.6406,0.34375 0.89453,0 1.793,-0.44922 2.3516,-1.2305 0.89453,-1.2891 0.55859,-3.0781 -0.78516,-3.9219 -16.855,-11.48 -26.543,-23.18401 -26.543,-32.09001 0,-3.19139 1.1211,-6.6094 3.0234,-10.023 2.3516,4.7617 5.7109,9.4648 9.8555,13.945 h -4.3125 c -1.5664,0 -2.8555,1.2891 -2.8555,2.8555 0,1.5664 1.2891,2.8555 2.8555,2.8555 h 10.305 c 4.5352,3.9766 9.7422,7.6719 15.566,10.97701 3.3047,1.90229 15.121,9.35159 25.703,16.23799 0.50391,0.28125 1.0078,0.44922 1.5117,0.44922 0.95312,0 1.8477,-0.44922 2.3516,-1.2891 0.83984,-1.2891 0.50391,-3.07809 -0.83984,-3.9219 -10.695,-6.9453 -22.512,-14.449 -25.93,-16.406 -3.3594,-1.9023 -6.4414,-3.9766 -9.3516,-6.1055 h 63.504 c 5.7695,6.1602 10.809,12.879 13.609,19.602 -0.61719,1.2305 -1.2891,2.5195 -2.0156,3.8633 -0.78516,1.3438 -0.33594,3.0781 1.0078,3.8633 0.50781,0.22656 1.0117,0.33984 1.457,0.33984 0.95312,0 1.9023,-0.50391 2.4062,-1.3984 0.16797,-0.28125 0.33594,-0.61719 0.50391,-0.89453 0.22266,1.2305 1.2891,2.1836 2.6328,2.2383 h 0.16797 c 1.5117,0 2.7422,-1.1758 2.8555,-2.6875 0.16797,-2.9102 0.22266,-5.8789 0.22266,-8.6797 0,-3.4727 -0.28125,-6.8867 -0.78516,-10.078 l -0.16797,-0.78516 c -3.1914,-18.703 -15.23,-30.07 -29.398,-41.945 -2.1289,-1.793 -7.7852,-5.9922 -14.223,-10.809 -6.4961,-4.8711 -13.719,-10.246 -18.535,-14.055 11.93,-8.6797 24.137,-17.922 32.145,-25.258 13.215,-12.152 21.559,-20.328 26.602,-30.238 5.8242,-11.48 6.2734,-36.734 6.2734,-44.184 0.0547,-0.55859 0.0547,-1.0625 0.0547,-1.625 0,-5.7695 -1.793,-11.426 -2.4648,-13.551 z M 378.003,42 c -2.0156,-1.625 -7.1133,-5.0391 -12.098,-8.3438 h 29.23 c -2.9102,4.1992 -6.6094,8.6797 -11.145,13.328 -1.8984,-1.625 -3.918,-3.3047 -5.9883,-4.9844 z m 24.863,287.17 0.22266,0.72656 c 0.22266,0.61719 0.50391,1.5664 0.83984,2.8008 -0.28125,-0.11328 -0.55859,-0.16797 -0.83984,-0.16797 h -2.1836 c -0.44922,-0.72656 -0.89453,-1.5117 -1.3984,-2.2969 -3.0234,-4.7031 -6.5508,-8.9609 -10.473,-12.375 1.625,-1.6797 3.0781,-3.2461 4.4258,-4.7031 4.9844,5.6562 7.8398,10.582 9.4062,16.016 z m -88.535,86.406 c -7.7266,-7.2227 -12.992,-12.824 -15.848,-18.367 0.83984,-1.1758 1.793,-2.3516 2.9688,-3.6406 h 70.84 c -4.1992,3.4141 -15.176,12.207 -28.281,22.008 z m 21.953,5.6562 c -2.9102,2.0703 -5.8789,4.1992 -8.8477,6.3281 l -5.3203,-4.7617 c -0.55859,-0.50391 -1.1211,-1.0078 -1.6797,-1.5117 l 15.848,0.004 z m -29.008,-33.32 c 2.4062,-2.1836 5.3203,-4.5352 8.7344,-7.2812 5.207,-4.1445 11.48,-9.2383 18.145,-14.727 h 63.336 c -4.3125,6.832 -10.586,14.055 -18.984,22.008 z m 33.711,-27.664 c 9.1836,-7.6719 18.48,-15.566 26.039,-22.008 h 30.688 c 3.3594,5.7695 4.5938,9.2969 5.4336,16.184 -0.67188,1.9023 -1.457,3.8633 -2.4648,5.8789 l -59.695,0.004 z m 32.59,-27.719 c 4.4805,-3.9219 7.7852,-6.832 9.1289,-8.2305 0.78516,-0.78516 1.5664,-1.5664 2.2969,-2.3516 3.3594,2.9102 6.4961,6.4961 9.1289,10.586 z m -12.543,-120.12 c 6.1602,4.5938 11.984,8.9023 14,10.641 13.887,11.594 24.695,21.84 27.496,38.922 0.22266,1.5664 0.16797,3.3047 -0.16797,5.0977 -2.2969,-4.0898 -5.2656,-8.0625 -8.5117,-11.93 h 0.39062 c 1.5664,0 2.8555,-1.2305 2.8555,-2.8555 0,-1.5664 -1.2891,-2.8555 -2.8555,-2.8555 h -5.543 c -8.6797,-8.9023 -18.703,-16.633 -26.32,-22.008 h 5.9922 c 1.5664,0 2.8555,-1.2891 2.8555,-2.8555 0,-1.5664 -1.2891,-2.8555 -2.8555,-2.8555 h -14.113 c -6.7773,-4.8164 -13.832,-10.137 -23.07,-17.359 l 1.3984,-1.0078 c 2.7422,-1.9609 5.6016,-4.0312 8.5117,-6.1602 4.9297,4.0273 12.828,9.9102 19.938,15.227 z m -3.75,64.738 c -10.473,-6.7773 -21.895,-14 -25.199,-15.902 -3.3594,-1.9023 -6.4414,-3.9766 -9.3516,-6.1055 h 63.504 c 5.7695,6.1602 10.809,12.879 13.609,19.602 -0.39062,0.78516 -0.78516,1.5664 -1.2305,2.4062 z m 37.797,5.6562 c -2.9102,4.1992 -6.6094,8.6797 -11.145,13.328 -1.8477,-1.625 -3.9219,-3.3047 -5.9922,-4.9297 -2.0156,-1.625 -7.1133,-5.0391 -12.098,-8.3438 h 29.234 z m -42.559,-55.328 c 1.5117,1.1211 3.0234,2.1289 4.5352,3.1914 5.4336,3.7539 14.727,10.527 23.52,18.816 h -64.734 c -6.7773,-6.1055 -11.648,-12.824 -14.281,-19.543 0.67188,-0.83984 1.2891,-1.625 2.0156,-2.4062 l 48.945,-0.004 z m -43.625,-5.6562 c 3.1367,-3.0781 6.5508,-5.8789 9.8555,-8.3438 2.3516,-1.7344 4.8711,-3.5859 7.6172,-5.543 7.0547,5.543 12.938,9.9688 18.258,13.887 z m 96.043,-133.5 c 0.16797,0.95312 0.28125,1.9609 0.33594,2.9688 -0.39063,-0.78516 -0.78516,-1.5664 -1.1758,-2.4062 0.27734,-0.11328 0.55859,-0.33984 0.83984,-0.5625 z m -11.48,-24.305 c 4.9844,5.6562 7.8398,10.527 9.4062,16.016 l 0.22266,0.72656 c 0.22266,0.61719 0.50391,1.5664 0.83984,2.8008 -0.28125,-0.11328 -0.55859,-0.16797 -0.83984,-0.16797 h -2.1836 c -0.44922,-0.72656 -0.89453,-1.5117 -1.3984,-2.2969 -3.0234,-4.7031 -6.5508,-8.9609 -10.473,-12.375 1.5703,-1.6797 3.0234,-3.1914 4.4258,-4.7031 z m -10.754,11.145 c 0.78516,-0.78516 1.5664,-1.5664 2.2969,-2.3516 3.3594,2.9102 6.4961,6.4961 9.1289,10.586 h -20.609 c 4.5352,-3.9219 7.7852,-6.8359 9.1836,-8.2344 z m -15.68,13.887 h 30.688 c 3.3594,5.7695 4.5938,9.2969 5.4336,16.184 -0.67188,1.9023 -1.457,3.8633 -2.4648,5.8789 l -59.695,0.004 c 9.1836,-7.6719 18.48,-15.570003 26.039,-22.066003 z m -51.016,42.449 c 5.207,-4.1445 11.48,-9.2383 18.145,-14.727 h 63.336 c -4.3125,6.832 -10.586,14.055 -18.984,22.008 h -71.23 c 2.4609,-2.1836 5.3203,-4.5391 8.7344,-7.2812 z m -14.559,12.938 h 70.84 c -4.1992,3.4141 -15.176,12.207 -28.281,22.008 h -29.625 c -7.7266,-7.2227 -12.992,-12.824 -15.848,-18.367 0.73047,-1.1211 1.7383,-2.3555 2.9141,-3.6406 z m 34.832,27.664 c -2.9102,2.0703 -5.8789,4.1992 -8.8477,6.3281 l -5.3203,-4.7617 c -0.55859,-0.50391 -1.1211,-1.0078 -1.6797,-1.5117 h 15.848 z m -29.906,11.367 c -7,-7.7852 -11.594,-16.297 -11.594,-21.672 v -0.33594 c 0,-0.39062 0,-0.72656 0.0547,-1.1211 v -0.50391 c 0.11328,-2.0156 0.28125,-3.8086 0.78516,-5.6016 2.5742,3.8633 6.0469,7.7852 10.527,12.152 h -2.7422 c -1.5664,0 -2.8555,1.2891 -2.8555,2.8555 0,1.5664 1.2891,2.8555 2.8555,2.8555 h 8.7344 c 1.9609,1.793 4.0312,3.6953 6.2148,5.7109 l 4.3125,3.9219 c -0.16797,0.16797 -0.33594,0.28125 -0.50391,0.39062 -3.2461,2.2383 -6.6094,4.5938 -9.8008,7.2227 -2.125,-1.8438 -4.1406,-3.8047 -5.9883,-5.875 z m -4.3672,25.254 c 0,-0.0547 0.0547,-0.0547 0.0547,-0.11328 0,0 0,-0.0547 0.0547,-0.0547 4.5352,-8.2305 14.281,-15.68 23.297,-21.785 1.1758,-0.78516 2.3516,-1.625 3.5273,-2.4648 6.0469,-4.1445 11.984,-8.5117 17.641,-12.711 0.16797,-0.11328 0.28125,-0.22266 0.44922,-0.33594 16.184,-12.039 29.176,-22.566 30.801,-24.078 1.2305,-1.1211 2.3516,-2.1836 3.5273,-3.2461 0.0547,-0.0547 0.11328,-0.11328 0.16797,-0.11328 0.11328,-0.11328 0.28125,-0.28125 0.39062,-0.39062 l 0.0547,-0.0547 c 10.191,-9.6328 17.473,-18.312 22.23,-26.656 -0.89453,7.7852 -2.2969,14.727 -4.4258,18.984 -4.5938,9.0703 -12.711,16.855 -25.426,28.617 -8.3984,7.7852 -21.785,17.754 -34.496,26.992 -0.11328,0.0547 -0.16797,0.11328 -0.22266,0.16797 -3.4727,2.4648 -6.8867,4.9297 -10.137,7.2812 l -4.4258,3.1914 c 0.0547,-0.0547 0.0547,-0.0547 0.11328,-0.0547 -0.16797,0.11328 -0.28125,0.16797 -0.39062,0.28125 0.0547,-0.11328 0.16797,-0.16797 0.22266,-0.22266 -3.3594,2.4648 -6.5508,4.7617 -9.3516,6.832 -3.0234,2.2383 -9.4062,7.2227 -15.121,13.664 -0.11328,0.11328 -0.22266,0.22266 -0.33594,0.33594 -0.0547,0.0547 -0.11328,0.11328 -0.16797,0.16797 -1.2891,1.457 -2.4648,2.9102 -3.5859,4.4805 -0.16797,0.16797 -0.28125,0.33594 -0.39062,0.50391 1.0156,-7.625 3.0352,-13.953 5.9453,-19.219 z m 52.191,87.809 c -7.7266,-4.1992 -16.52,-9.0156 -23.465,-12.992 -3.0781,-1.793 -6.2148,-3.6953 -9.2383,-5.7695 -0.0547,-0.0547 -0.11328,-0.11328 -0.16797,-0.11328 -16.855,-11.48 -26.543,-23.184 -26.543,-32.09 0,-3.1914 1.1211,-6.6094 3.0234,-10.023 2.3516,4.7617 5.7109,9.4648 9.8555,13.945 h -4.3125 c -1.5664,0 -2.8555,1.2891 -2.8555,2.8555 0,1.5664 1.2891,2.8555 2.8555,2.8555 h 10.305 c 4.5352,3.9766 9.7422,7.6719 15.566,10.977 2.4648,1.457 9.6875,5.9922 17.586,11.031 h -5.6016 c -1.5664,0 -2.8555,1.2891 -2.8555,2.8555 0,1.5664 1.2305,2.8555 2.8555,2.8555 l 14.395,0.004 c 9.9102,6.4414 16.801,11.09 18.871,12.824 1.9023,1.5117 3.8086,3.0234 5.543,4.5352 -2.2383,2.1289 -4.6484,4.3672 -7.2227,6.6641 -3.6953,-2.293 -10.641,-6.1016 -18.594,-10.414 z m -58.352,87.137 0.28125,-1.1211 c 4.1992,-13.551 35.727,-37.801 46.762,-45.414 10.359,-7.168 16.238,-11.426 23.633,-17.809 0.22266,-0.22266 0.61719,-0.55859 1.2305,-1.0078 2.4062,-1.9609 4.7617,-3.9219 7,-5.8242 0.11328,-0.0547 0.22266,-0.16797 0.28125,-0.22266 12.879,-11.09 22.121,-21.391 27.551,-30.742 0.0547,-0.0547 0.0547,-0.11328 0.0547,-0.11328 0.0547,-0.0547 0.11328,-0.11328 0.11328,-0.22266 0.11328,-0.16797 0.16797,-0.28125 0.22266,-0.44922 -0.22266,3.8633 -0.78516,6.832 -1.6797,9.2383 -1.625,5.7109 -4.3672,10.359 -9.8555,16.742 l -0.0547,0.0547 c -0.16797,0.16797 -0.33594,0.28125 -0.44922,0.44922 -2.1836,2.4648 -4.7617,5.2656 -7.8945,8.3984 l -0.72656,0.72656 c -1.1758,1.1758 -2.4062,2.4648 -3.7539,3.8086 -1.7344,1.7344 -7.0547,6.4961 -14.281,12.77 -0.16797,0.11328 -0.28125,0.22266 -0.44922,0.33594 -9.1289,7.8398 -21.055,17.977 -32.367,27.328 -0.16797,0.11328 -0.28125,0.22266 -0.44922,0.33594 -6.6641,5.543 -13.105,10.809 -18.648,15.176 -6.1602,4.8711 -10.863,8.8477 -14.281,12.488 -1.2891,1.2891 -2.3516,2.5742 -3.3047,3.8086 0.28125,-3.3594 0.5625,-6.6055 1.0664,-8.7344 z m 10.527,48.945 c -7,-7.7852 -11.594,-16.297 -11.594,-21.672 v -0.33594 c 0,-0.39062 0,-0.72656 0.0547,-1.1211 v -0.50391 c 0.11328,-2.0156 0.28125,-3.8086 0.78516,-5.6016 2.5742,3.8633 6.0469,7.7852 10.527,12.152 h -2.7422 c -1.5664,0 -2.8555,1.2891 -2.8555,2.8555 0,1.5664 1.2891,2.8555 2.8555,2.8555 h 8.7344 c 1.9609,1.793 4.0312,3.6953 6.2148,5.7109 l 4.3125,3.9219 c -0.16797,0.16797 -0.33594,0.28125 -0.50391,0.39062 -3.2461,2.2383 -6.6094,4.5938 -9.8008,7.2227 -2.125,-1.8438 -4.1406,-3.8047 -5.9883,-5.875 z m 9.4648,66.023 c -6.7773,-6.1055 -11.648,-12.824 -14.281,-19.543 0.67188,-0.83984 1.2891,-1.625 2.0156,-2.4062 h 49 c 1.5117,1.1211 3.0234,2.1289 4.5352,3.1914 5.4336,3.7539 14.727,10.527 23.52,18.816 l -64.789,-0.004 z m -6.9453,-27.664 c 3.1367,-3.0781 6.5508,-5.8789 9.8555,-8.3438 2.3516,-1.7344 4.8711,-3.5859 7.6172,-5.543 7.0547,5.543 12.938,9.9688 18.258,13.887 z m 52.137,-9.4102 c 6.1602,4.5938 11.984,8.9023 14,10.641 13.887,11.594 24.695,21.84 27.496,38.922 0.22266,1.5664 0.16797,3.3047 -0.16797,5.0977 -2.2969,-4.0898 -5.2656,-8.0625 -8.5117,-11.93 h 0.39062 c 1.5664,0 2.8555,-1.2305 2.8555,-2.8555 0,-1.5664 -1.2891,-2.8555 -2.8555,-2.8555 h -5.543 c -8.6797,-8.9023 -18.703,-16.633 -26.32,-22.008 h 5.9922 c 1.5664,0 2.8555,-1.2891 2.8555,-2.8555 0,-1.5664 -1.2891,-2.8555 -2.8555,-2.8555 h -14.113 c -6.7773,-4.8164 -13.832,-10.137 -23.07,-17.359 l 1.3984,-1.0078 c 2.7422,-1.9609 5.6016,-4.0312 8.5117,-6.1602 4.9297,4.0273 12.828,9.9062 19.938,15.227 z m 38.527,-76.605 c -4.5938,9.0703 -12.711,16.855 -25.426,28.617 -8.3984,7.7852 -21.785,17.754 -34.496,26.992 -0.11328,0.0547 -0.16797,0.11328 -0.22266,0.16797 -3.4727,2.4648 -6.8867,4.9297 -10.137,7.2812 l -4.4258,3.1914 c 0.0547,-0.0547 0.0547,-0.0547 0.11328,-0.0547 -0.16797,0.11328 -0.28125,0.16797 -0.39062,0.28125 0.0547,-0.11328 0.16797,-0.16797 0.22266,-0.22266 -3.3594,2.4648 -6.5508,4.7617 -9.3516,6.832 -3.0234,2.2383 -9.4062,7.2227 -15.121,13.664 -0.11328,0.11328 -0.22266,0.22266 -0.33594,0.33594 -0.0547,0.0547 -0.11328,0.11328 -0.16797,0.16797 -1.2891,1.457 -2.4648,2.9102 -3.5859,4.4805 -0.16797,0.16797 -0.28125,0.33594 -0.39062,0.50391 1.1211,-7.7266 3.1367,-14.055 6.1055,-19.32 v -0.0547 c 0,-0.0547 0.0547,-0.0547 0.0547,-0.0547 0,0 0,-0.0547 0.0547,-0.0547 4.53519,-8.2305 14.281,-15.68 23.297,-21.785 1.1758,-0.78516 2.3516,-1.625 3.5273,-2.4648 6.0469,-4.1445 11.984,-8.5117 17.641,-12.711 0.16797,-0.11328 0.28125,-0.22266 0.44922,-0.33594 16.184,-12.039 29.176,-22.566 30.801,-24.078 1.2305,-1.1211 2.3516,-2.1836 3.5273,-3.2461 0.0547,-0.0547 0.11328,-0.11328 0.16797,-0.11328 0.11328,-0.11328 0.28125,-0.28125 0.39062,-0.39062 l 0.0547,-0.0547 c 10.191,-9.6328 17.473,-18.312 22.23,-26.656 -1,7.8789 -2.4023,14.824 -4.5859,19.082 z m 4.4805,-46.93 c 0.33594,-0.11328 0.61719,-0.33594 0.89453,-0.55859 0.16797,0.95312 0.28125,1.9609 0.33594,2.9688 -0.39062,-0.78516 -0.78125,-1.5703 -1.2305,-2.4102 z"
       id="path2" />
    <use
       x="70"
       y="644"
       xlink:href="#v"
       id="use4" />
    <use
       x="90.550781"
       y="644"
       xlink:href="#d"
       id="use6" />
    <use
       x="104.35938"
       y="644"
       xlink:href="#a"
       id="use8" />
    <use
       x="123.34766"
       y="644"
       xlink:href="#j"
       id="use10" />
    <use
       x="142.24219"
       y="644"
       xlink:href="#c"
       id="use12" />
    <use
       x="155.62891"
       y="644"
       xlink:href="#a"
       id="use14" />
    <use
       x="174.61719"
       y="644"
       xlink:href="#i"
       id="use16" />
    <use
       x="204.41016"
       y="644"
       xlink:href="#h"
       id="use18" />
    <use
       x="224.45312"
       y="644"
       xlink:href="#g"
       id="use20" />
    <use
       x="252.45312"
       y="644"
       xlink:href="#f"
       id="use22" />
    <use
       x="262.86719"
       y="644"
       xlink:href="#e"
       id="use24" />
    <use
       x="282.80469"
       y="644"
       xlink:href="#u"
       id="use26" />
    <use
       x="292.39844"
       y="644"
       xlink:href="#t"
       id="use28" />
    <use
       x="302"
       y="644"
       xlink:href="#a"
       id="use30" />
    <use
       x="330.73438"
       y="644"
       xlink:href="#s"
       id="use32" />
    <use
       x="352.43359"
       y="644"
       xlink:href="#b"
       id="use34" />
    <use
       x="70"
       y="672"
       xlink:href="#r"
       id="use36" />
    <use
       x="82.183594"
       y="672"
       xlink:href="#d"
       id="use38" />
    <use
       x="95.992188"
       y="672"
       xlink:href="#b"
       id="use40" />
    <use
       x="115.22656"
       y="672"
       xlink:href="#q"
       id="use42" />
    <use
       x="154.15234"
       y="672"
       xlink:href="#c"
       id="use44" />
    <use
       x="167.53516"
       y="672"
       xlink:href="#p"
       id="use46" />
    <use
       x="187.46875"
       y="672"
       xlink:href="#a"
       id="use48" />
    <use
       x="216.20703"
       y="672"
       xlink:href="#o"
       id="use50" />
    <use
       x="239.64062"
       y="672"
       xlink:href="#b"
       id="use52" />
    <use
       x="258.87891"
       y="672"
       xlink:href="#e"
       id="use54" />
    <use
       x="278.8125"
       y="672"
       xlink:href="#n"
       id="use56" />
    <use
       x="308.49219"
       y="672"
       xlink:href="#m"
       id="use58" />
    <use
       x="329.01562"
       y="672"
       xlink:href="#d"
       id="use60" />
    <use
       x="342.82031"
       y="672"
       xlink:href="#b"
       id="use62" />
    <use
       x="362.05859"
       y="672"
       xlink:href="#l"
       id="use64" />
    <use
       x="371.65625"
       y="672"
       xlink:href="#a"
       id="use66" />
    <use
       x="390.64844"
       y="672"
       xlink:href="#k"
       id="use68" />
    <use
       x="407.24219"
       y="672"
       xlink:href="#c"
       id="use70" />
  </g>
</svg>
