<?xml version="1.0" encoding="UTF-8" standalone="no"?>
<svg
   width="700pt"
   height="513pt"
   version="1.1"
   viewBox="0 0 700 513"
   id="svg86"
   sodipodi:docname="stephanie.svg"
   inkscape:version="1.2 (dc2aedaf03, 2022-05-15)"
   xmlns:inkscape="http://www.inkscape.org/namespaces/inkscape"
   xmlns:sodipodi="http://sodipodi.sourceforge.net/DTD/sodipodi-0.dtd"
   xmlns:xlink="http://www.w3.org/1999/xlink"
   xmlns="http://www.w3.org/2000/svg"
   xmlns:svg="http://www.w3.org/2000/svg">
  <defs
     id="defs90" />
  <sodipodi:namedview
     id="namedview88"
     pagecolor="#ffffff"
     bordercolor="#000000"
     borderopacity="0.25"
     inkscape:showpageshadow="2"
     inkscape:pageopacity="0.0"
     inkscape:pagecheckerboard="0"
     inkscape:deskcolor="#d1d1d1"
     inkscape:document-units="pt"
     showgrid="false"
     inkscape:zoom="0.89678571"
     inkscape:cx="467.22421"
     inkscape:cy="467.22421"
     inkscape:window-width="1920"
     inkscape:window-height="1017"
     inkscape:window-x="-8"
     inkscape:window-y="-8"
     inkscape:window-maximized="1"
     inkscape:current-layer="svg86" />
  <g
     id="g84"
     transform="matrix(1.5950496,0,0,1.5950496,-226.15239,-205.3435)">
    <path
       d="m 564.14,161.05 c 0,17.848 -14.469,32.312 -32.312,32.312 -17.843,0 -32.312,-14.465 -32.312,-32.312 0,-17.844 14.469,-32.312 32.312,-32.312 17.843,0 32.312,14.469 32.312,32.312"
       id="path2" />
    <path
       d="m 532.67,316.96 c -12.652,-9.8242 -25.914,-18.84 -39.703,-26.992 -9.2188,-45.992 -41.746,-83.848 -85.824,-99.887 -44.078,-16.039 -93.328,-7.9375 -129.95,21.375 -17.461,-2.8906 -35.109,-4.5 -52.809,-4.8164 -1.7852,-9.4141 -8.1602,-17.312 -16.98,-21.051 -8.8242,-3.7383 -18.93,-2.8242 -26.938,2.4414 -8.0078,5.2617 -12.855,14.18 -12.922,23.762 0.0547,1.0312 0.16797,2.0586 0.33594,3.0781 -10.852,3.5078 -19.68,11.5 -24.246,21.953 -7.6719,21.055 8.6797,48.832 46.031,78.398 12.617,9.8008 25.844,18.801 39.594,26.938 9.0547,46.316 41.742,84.492 86.113,100.57 44.371,16.078 93.922,7.707 130.55,-22.059 18.266,3.0781 36.746,4.7266 55.27,4.9297 41.551,0 70.391,-10.023 77.727,-30.297 7.3398,-20.273 -8.9023,-48.945 -46.254,-78.344 z M 196.28,191.01 c 5.5078,0 10.793,2.1875 14.691,6.0859 3.8945,3.8945 6.082,9.1797 6.082,14.691 0,5.5078 -2.1875,10.793 -6.082,14.691 -3.8984,3.8945 -9.1836,6.082 -14.691,6.082 -5.5117,0 -10.797,-2.1875 -14.691,-6.082 -3.8984,-3.8984 -6.0859,-9.1836 -6.0859,-14.691 0,-5.5117 2.1875,-10.797 6.0859,-14.691 3.8945,-3.8984 9.1797,-6.0859 14.691,-6.0859 z M 568.4,391.32 c -11.199,31.078 -106.4,34.105 -230.44,-11.199 -56,-20.441 -106.4,-46.762 -141.12,-74.145 -32.98,-25.535 -48.438,-49.391 -42.836,-65.184 3.2617,-7.2031 9.332,-12.75 16.801,-15.344 3.6992,6.9922 10.137,12.141 17.773,14.211 7.6367,2.0664 15.793,0.875 22.52,-3.293 6.7227,-4.168 11.418,-10.941 12.961,-18.703 14.117,0.27734 28.199,1.4375 42.168,3.4727 -24.77,24.676 -38.918,58.055 -39.422,93.016 36.832,23.438 76.188,42.652 117.32,57.289 39.254,14.328 79.969,24.281 121.41,29.68 19.496,-23.93 30.117,-53.863 30.074,-84.73 0,-4.0312 0,-8.0625 -0.55859,-12.039 h -0.004 c 10.617,6.5859 20.883,13.727 30.746,21.395 32.758,25.758 48.215,49.445 42.613,65.574 z"
       id="path4" />
    <use
       x="70"
       y="644"
       xlink:href="#w"
       id="use6" />
    <use
       x="90.550781"
       y="644"
       xlink:href="#c"
       id="use8" />
    <use
       x="104.35938"
       y="644"
       xlink:href="#a"
       id="use10" />
    <use
       x="123.34766"
       y="644"
       xlink:href="#b"
       id="use12" />
    <use
       x="142.24219"
       y="644"
       xlink:href="#e"
       id="use14" />
    <use
       x="155.62891"
       y="644"
       xlink:href="#a"
       id="use16" />
    <use
       x="174.61719"
       y="644"
       xlink:href="#j"
       id="use18" />
    <use
       x="204.41016"
       y="644"
       xlink:href="#i"
       id="use20" />
    <use
       x="224.45312"
       y="644"
       xlink:href="#h"
       id="use22" />
    <use
       x="252.45312"
       y="644"
       xlink:href="#g"
       id="use24" />
    <use
       x="270.29297"
       y="644"
       xlink:href="#d"
       id="use26" />
    <use
       x="289.53125"
       y="644"
       xlink:href="#v"
       id="use28" />
    <use
       x="308.14844"
       y="644"
       xlink:href="#b"
       id="use30" />
    <use
       x="336.79297"
       y="644"
       xlink:href="#u"
       id="use32" />
    <use
       x="364.65625"
       y="644"
       xlink:href="#b"
       id="use34" />
    <use
       x="383.55078"
       y="644"
       xlink:href="#c"
       id="use36" />
    <use
       x="397.35938"
       y="644"
       xlink:href="#t"
       id="use38" />
    <use
       x="406.95703"
       y="644"
       xlink:href="#a"
       id="use40" />
    <use
       x="425.94531"
       y="644"
       xlink:href="#f"
       id="use42" />
    <use
       x="435.54688"
       y="644"
       xlink:href="#f"
       id="use44" />
    <use
       x="445.14062"
       y="644"
       xlink:href="#b"
       id="use46" />
    <use
       x="70"
       y="672"
       xlink:href="#s"
       id="use48" />
    <use
       x="82.183594"
       y="672"
       xlink:href="#c"
       id="use50" />
    <use
       x="95.992188"
       y="672"
       xlink:href="#d"
       id="use52" />
    <use
       x="115.22656"
       y="672"
       xlink:href="#r"
       id="use54" />
    <use
       x="154.15234"
       y="672"
       xlink:href="#e"
       id="use56" />
    <use
       x="167.53516"
       y="672"
       xlink:href="#q"
       id="use58" />
    <use
       x="187.46875"
       y="672"
       xlink:href="#a"
       id="use60" />
    <use
       x="216.20703"
       y="672"
       xlink:href="#p"
       id="use62" />
    <use
       x="239.64062"
       y="672"
       xlink:href="#d"
       id="use64" />
    <use
       x="258.87891"
       y="672"
       xlink:href="#o"
       id="use66" />
    <use
       x="278.8125"
       y="672"
       xlink:href="#n"
       id="use68" />
    <use
       x="308.49219"
       y="672"
       xlink:href="#m"
       id="use70" />
    <use
       x="329.01562"
       y="672"
       xlink:href="#c"
       id="use72" />
    <use
       x="342.82031"
       y="672"
       xlink:href="#d"
       id="use74" />
    <use
       x="362.05859"
       y="672"
       xlink:href="#l"
       id="use76" />
    <use
       x="371.65625"
       y="672"
       xlink:href="#a"
       id="use78" />
    <use
       x="390.64844"
       y="672"
       xlink:href="#k"
       id="use80" />
    <use
       x="407.24219"
       y="672"
       xlink:href="#e"
       id="use82" />
  </g>
</svg>
