<?xml version="1.0" encoding="UTF-8" standalone="no"?>
<svg
   width="700pt"
   height="700pt"
   version="1.1"
   viewBox="0 0 700 700"
   id="svg88"
   sodipodi:docname="Zach.svg"
   inkscape:version="1.2 (dc2aedaf03, 2022-05-15)"
   xmlns:inkscape="http://www.inkscape.org/namespaces/inkscape"
   xmlns:sodipodi="http://sodipodi.sourceforge.net/DTD/sodipodi-0.dtd"
   xmlns:xlink="http://www.w3.org/1999/xlink"
   xmlns="http://www.w3.org/2000/svg"
   xmlns:svg="http://www.w3.org/2000/svg">
  <defs
     id="defs92" />
  <sodipodi:namedview
     id="namedview90"
     pagecolor="#ffffff"
     bordercolor="#000000"
     borderopacity="0.25"
     inkscape:showpageshadow="2"
     inkscape:pageopacity="0.0"
     inkscape:pagecheckerboard="0"
     inkscape:deskcolor="#d1d1d1"
     inkscape:document-units="pt"
     showgrid="false"
     inkscape:zoom="0.89678571"
     inkscape:cx="467.22421"
     inkscape:cy="471.68459"
     inkscape:window-width="1920"
     inkscape:window-height="1017"
     inkscape:window-x="-8"
     inkscape:window-y="-8"
     inkscape:window-maximized="1"
     inkscape:current-layer="svg88" />
  <g
     id="g86"
     transform="matrix(1.4531952,0,0,1.4531952,-150.41557,-56.921542)">
    <path
       d="m 584.64,343.67 -78.398,-235.2 h -0.004 c -1.1484,-3.4844 -3.9297,-6.1797 -7.4453,-7.2266 l -207.2,-61.602 v 0.0039 c -3.9766,-1.1953 -8.2852,-0.09766 -11.203,2.8555 l -173.6,173.6 h 0.004 c -3.0234,3.0156 -4.0664,7.4922 -2.6875,11.535 l 84,246.4 c 1.3594,4.0742 4.9258,7.0078 9.1836,7.5625 l 201.6,28 h 1.5078 c 2.6992,-0.004 5.3008,-0.97656 7.3359,-2.7461 l 173.6,-151.2 c 3.4219,-2.9609 4.7227,-7.6875 3.3047,-11.984 z M 206.86,459.2 246.958,263.48 432.208,453.88 Z M 502.65,177.47 251.04,244.22 290.575,66.42 Z m -263.2,67.871 -106.96,-23.238 144.03,-143.7 z m 202.27,202.21 -187.43,-192.58 254.63,-67.594 0.67187,1.9609 -67.199,257.6 z m 59.473,-283.53 -170.91,-89.602 156.8,46.535 z m -371.5,68.938 107.3,23.352 -37.297,181.95 z m 267.18,253.62 -128.07,-17.754 152.49,-3.4727 z m 60.762,-52.863 58.465,-224.9 44.801,134.85 z m -154.45,-234.92 c 1.1562,-8.0312 4.7773,-15.508 10.359,-21.395 3.8789,-4.4805 7.3281,-9.3203 10.305,-14.445 1.8984,-3.6602 2.043,-7.9844 0.39062,-11.762 -1.2656,-3.0156 -3.4883,-5.5352 -6.3281,-7.168 -2.9727,-1.6406 -6.4648,-2.0586 -9.7422,-1.1758 -5.0391,1.1211 -7.7266,3.5859 -8.1758,7.3359 -0.004,3.3516 0.67969,6.668 2.0156,9.7461 l -16.801,3.9219 v -0.004 c -2.207,-5.3047 -3.0156,-11.09 -2.3516,-16.801 1.457,-8.457 7.8398,-13.832 19.039,-16.297 v 0.004 c 7.8398,-2.0117 16.117,-1.4023 23.578,1.7344 6.8242,2.9531 12.285,8.3711 15.289,15.176 2.457,4.9844 2.8789,10.727 1.1758,16.016 -1.7383,4.6719 -4.3008,8.9961 -7.5625,12.77 l -4.7617,6.0469 c -3.0234,3.7344 -5.0391,6.4766 -6.0469,8.2305 -0.82422,1.6523 -1.3555,3.4336 -1.5664,5.2656 l 37.07,-9.7422 6.2148,13.719 -59.582,16.184 c -2.1875,-5.5078 -3.0508,-11.457 -2.5195,-17.359 z m 83.609,-76.664 c 8.207,6.9688 14.766,15.672 19.207,25.48 5.3164,8.9492 8.1602,19.156 8.2305,29.566 -0.55859,7.8398 -5.9375,13.215 -16.07,15.961 -9.0938,3.0312 -19.102,1.3047 -26.656,-4.5938 -8.6719,-7.5156 -15.445,-16.973 -19.77,-27.605 -4.9453,-8.9805 -7.2734,-19.164 -6.7188,-29.402 1.1211,-7.2812 6.6641,-11.984 16.801,-14.168 8.6133,-2.3398 17.824,-0.58594 24.977,4.7617 z m -7.0547,54.098 -0.004,-0.004 c 2.875,3.9492 7.8672,5.75 12.602,4.5391 2.043,-0.37109 3.832,-1.6016 4.9023,-3.3828 1.0742,-1.7812 1.3281,-3.9336 0.69922,-5.9141 -1.543,-6.9805 -4.0508,-13.707 -7.4492,-19.992 -3.0117,-6.7148 -6.8867,-13 -11.535,-18.703 -2.8359,-3.4688 -7.4023,-5.0117 -11.762,-3.9766 -1.9062,0.23047 -3.6328,1.2383 -4.7695,2.7891 -1.1328,1.5469 -1.5781,3.5 -1.2227,5.3867 1.3008,6.9141 3.6211,13.594 6.8906,19.824 3.0039,6.9609 6.9219,13.496 11.645,19.43 z"
       id="path2" />
    <use
       x="70"
       y="644"
       xlink:href="#w"
       id="use4" />
    <use
       x="90.550781"
       y="644"
       xlink:href="#d"
       id="use6" />
    <use
       x="104.35938"
       y="644"
       xlink:href="#b"
       id="use8" />
    <use
       x="123.34766"
       y="644"
       xlink:href="#f"
       id="use10" />
    <use
       x="142.24219"
       y="644"
       xlink:href="#a"
       id="use12" />
    <use
       x="155.62891"
       y="644"
       xlink:href="#b"
       id="use14" />
    <use
       x="174.61719"
       y="644"
       xlink:href="#k"
       id="use16" />
    <use
       x="204.41016"
       y="644"
       xlink:href="#j"
       id="use18" />
    <use
       x="224.45312"
       y="644"
       xlink:href="#i"
       id="use20" />
    <use
       x="252.45312"
       y="644"
       xlink:href="#h"
       id="use22" />
    <use
       x="270.29297"
       y="644"
       xlink:href="#c"
       id="use24" />
    <use
       x="289.53125"
       y="644"
       xlink:href="#e"
       id="use26" />
    <use
       x="309.46094"
       y="644"
       xlink:href="#e"
       id="use28" />
    <use
       x="329.39844"
       y="644"
       xlink:href="#v"
       id="use30" />
    <use
       x="338.99219"
       y="644"
       xlink:href="#b"
       id="use32" />
    <use
       x="367.73438"
       y="644"
       xlink:href="#u"
       id="use34" />
    <use
       x="386.83203"
       y="644"
       xlink:href="#f"
       id="use36" />
    <use
       x="405.72656"
       y="644"
       xlink:href="#t"
       id="use38" />
    <use
       x="425.76953"
       y="644"
       xlink:href="#s"
       id="use40" />
    <use
       x="442.4375"
       y="644"
       xlink:href="#g"
       id="use42" />
    <use
       x="459.03125"
       y="644"
       xlink:href="#c"
       id="use44" />
    <use
       x="478.26953"
       y="644"
       xlink:href="#a"
       id="use46" />
    <use
       x="491.65625"
       y="644"
       xlink:href="#a"
       id="use48" />
    <use
       x="70"
       y="672"
       xlink:href="#r"
       id="use50" />
    <use
       x="82.183594"
       y="672"
       xlink:href="#d"
       id="use52" />
    <use
       x="95.992188"
       y="672"
       xlink:href="#c"
       id="use54" />
    <use
       x="115.22656"
       y="672"
       xlink:href="#q"
       id="use56" />
    <use
       x="154.15234"
       y="672"
       xlink:href="#a"
       id="use58" />
    <use
       x="167.53516"
       y="672"
       xlink:href="#p"
       id="use60" />
    <use
       x="187.46875"
       y="672"
       xlink:href="#b"
       id="use62" />
    <use
       x="216.20703"
       y="672"
       xlink:href="#o"
       id="use64" />
    <use
       x="239.64062"
       y="672"
       xlink:href="#c"
       id="use66" />
    <use
       x="258.87891"
       y="672"
       xlink:href="#n"
       id="use68" />
    <use
       x="278.8125"
       y="672"
       xlink:href="#e"
       id="use70" />
    <use
       x="308.49219"
       y="672"
       xlink:href="#m"
       id="use72" />
    <use
       x="329.01562"
       y="672"
       xlink:href="#d"
       id="use74" />
    <use
       x="342.82031"
       y="672"
       xlink:href="#c"
       id="use76" />
    <use
       x="362.05859"
       y="672"
       xlink:href="#l"
       id="use78" />
    <use
       x="371.65625"
       y="672"
       xlink:href="#b"
       id="use80" />
    <use
       x="390.64844"
       y="672"
       xlink:href="#g"
       id="use82" />
    <use
       x="407.24219"
       y="672"
       xlink:href="#a"
       id="use84" />
  </g>
</svg>
