<?xml version="1.0" encoding="UTF-8" standalone="no"?>
<svg
   width="603pt"
   height="700pt"
   version="1.1"
   viewBox="0 0 603 700"
   id="svg86"
   sodipodi:docname="noun-brick-53275.svg"
   inkscape:version="1.2 (dc2aedaf03, 2022-05-15)"
   xmlns:inkscape="http://www.inkscape.org/namespaces/inkscape"
   xmlns:sodipodi="http://sodipodi.sourceforge.net/DTD/sodipodi-0.dtd"
   xmlns:xlink="http://www.w3.org/1999/xlink"
   xmlns="http://www.w3.org/2000/svg"
   xmlns:svg="http://www.w3.org/2000/svg">
  <defs
     id="defs90" />
  <sodipodi:namedview
     id="namedview88"
     pagecolor="#ffffff"
     bordercolor="#000000"
     borderopacity="0.25"
     inkscape:showpageshadow="2"
     inkscape:pageopacity="0.0"
     inkscape:pagecheckerboard="0"
     inkscape:deskcolor="#d1d1d1"
     inkscape:document-units="pt"
     showgrid="false"
     inkscape:zoom="0.89678571"
     inkscape:cx="467.22421"
     inkscape:cy="467.22421"
     inkscape:window-width="1920"
     inkscape:window-height="1017"
     inkscape:window-x="-8"
     inkscape:window-y="-8"
     inkscape:window-maximized="1"
     inkscape:current-layer="svg86" />
  <g
     id="g84"
     transform="matrix(1.3478646,0,0,1.3478646,-169.83094,-18.452266)">
    <path
       fill="gold"
       d="M 350,533.03 126,403.18 V 143.54 L 350,13.69 574,143.54 V 403.19 Z M 144.67,392.42 350,511.46 555.33,392.42 V 154.29 L 350,35.25 144.67,154.29 Z"
       id="path2" />
    <path
       fill="gold"
       d="m 250.45,192.89 v 37.332 h -49.379 l -37.734,31.109 v 93.332 h 348.45 v -0.42187 0.42578 l 31.109,-44.09 0.004,-80.355 h -80.891 v -74.668 h -174.75 l -36.809,31.113 m 253.16,74.664 h -69.492 l 11.562,-12.445 h 68.02 z m -159.83,-6.2227 h -74.668 v -49.777 h 80.16 l 23.496,17.727 -12.328,14.789 13.551,11.289 24.18,-29.008 -19.609,-14.797 h 27.441 v 49.777 z m 99.555,-73.527 v 42.406 l -18.668,20.098 v -46.43 z m -148.81,-7.3594 h 130.32 l -14.461,12.445 h -129.41 z m -86.129,74.668 h 42.051 v 12.445 h -55.465 z m 116.71,87.109 h -96.027 l 21.25,-25.082 -13.453,-11.398 -28.816,34.016 -2.2422,2.4648 h -23.82 v -56 h 143.11 z m 168,0 h -149.33 v -56 h 29.566 l 4.4922,39.535 46.469,-11.625 31.129,15.184 7.7266,-15.848 -36.902,-18.008 -33.172,8.293 -1.9883,-17.531 h 102.02 z m 18.668,-13.223 v -43.535 l 0.008,0.008 12.438,-15.348 v 40.109 z"
       id="path4" />
    <use
       x="70"
       y="653.33203"
       xlink:href="#j"
       id="use6" />
    <use
       x="92.832031"
       y="653.33203"
       xlink:href="#b"
       id="use8" />
    <use
       x="108.17578"
       y="653.33203"
       xlink:href="#a"
       id="use10" />
    <use
       x="129.27344"
       y="653.33203"
       xlink:href="#f"
       id="use12" />
    <use
       x="150.26953"
       y="653.33203"
       xlink:href="#e"
       id="use14" />
    <use
       x="165.14062"
       y="653.33203"
       xlink:href="#a"
       id="use16" />
    <use
       x="186.24219"
       y="653.33203"
       xlink:href="#l"
       id="use18" />
    <use
       x="219.34375"
       y="653.33203"
       xlink:href="#k"
       id="use20" />
    <use
       x="241.61328"
       y="653.33203"
       xlink:href="#g"
       id="use22" />
    <use
       x="272.72266"
       y="653.33203"
       xlink:href="#j"
       id="use24" />
    <use
       x="295.55469"
       y="653.33203"
       xlink:href="#f"
       id="use26" />
    <use
       x="316.55078"
       y="653.33203"
       xlink:href="#d"
       id="use28" />
    <use
       x="327.21484"
       y="653.33203"
       xlink:href="#d"
       id="use30" />
    <use
       x="337.87891"
       y="653.33203"
       xlink:href="#i"
       id="use32" />
    <use
       x="360.02734"
       y="653.33203"
       xlink:href="#h"
       id="use34" />
    <use
       x="403.27344"
       y="653.33203"
       xlink:href="#t"
       id="use36" />
    <use
       x="424.49609"
       y="653.33203"
       xlink:href="#f"
       id="use38" />
    <use
       x="445.49219"
       y="653.33203"
       xlink:href="#g"
       id="use40" />
    <use
       x="465.76953"
       y="653.33203"
       xlink:href="#d"
       id="use42" />
    <use
       x="476.43359"
       y="653.33203"
       xlink:href="#c"
       id="use44" />
    <use
       x="497.80859"
       y="653.33203"
       xlink:href="#b"
       id="use46" />
    <use
       x="70"
       y="684.44531"
       xlink:href="#s"
       id="use48" />
    <use
       x="83.535156"
       y="684.44531"
       xlink:href="#b"
       id="use50" />
    <use
       x="98.878906"
       y="684.44531"
       xlink:href="#c"
       id="use52" />
    <use
       x="120.25"
       y="684.44531"
       xlink:href="#h"
       id="use54" />
    <use
       x="163.5"
       y="684.44531"
       xlink:href="#e"
       id="use56" />
    <use
       x="178.37109"
       y="684.44531"
       xlink:href="#r"
       id="use58" />
    <use
       x="200.51953"
       y="684.44531"
       xlink:href="#a"
       id="use60" />
    <use
       x="232.45312"
       y="684.44531"
       xlink:href="#q"
       id="use62" />
    <use
       x="258.48828"
       y="684.44531"
       xlink:href="#c"
       id="use64" />
    <use
       x="279.86328"
       y="684.44531"
       xlink:href="#i"
       id="use66" />
    <use
       x="302.01172"
       y="684.44531"
       xlink:href="#p"
       id="use68" />
    <use
       x="334.99219"
       y="684.44531"
       xlink:href="#o"
       id="use70" />
    <use
       x="357.79297"
       y="684.44531"
       xlink:href="#b"
       id="use72" />
    <use
       x="373.13672"
       y="684.44531"
       xlink:href="#c"
       id="use74" />
    <use
       x="394.50781"
       y="684.44531"
       xlink:href="#n"
       id="use76" />
    <use
       x="405.17188"
       y="684.44531"
       xlink:href="#a"
       id="use78" />
    <use
       x="426.27344"
       y="684.44531"
       xlink:href="#m"
       id="use80" />
    <use
       x="444.71484"
       y="684.44531"
       xlink:href="#e"
       id="use82" />
  </g>
</svg>
