<?xml version="1.0" encoding="UTF-8" standalone="no"?>
<svg
   width="620pt"
   height="700pt"
   version="1.1"
   viewBox="0 0 620 700"
   id="svg90"
   sodipodi:docname="noun-ore-53277.svg"
   inkscape:version="1.2 (dc2aedaf03, 2022-05-15)"
   xmlns:inkscape="http://www.inkscape.org/namespaces/inkscape"
   xmlns:sodipodi="http://sodipodi.sourceforge.net/DTD/sodipodi-0.dtd"
   xmlns:xlink="http://www.w3.org/1999/xlink"
   xmlns="http://www.w3.org/2000/svg"
   xmlns:svg="http://www.w3.org/2000/svg">
  <defs
     id="defs94" />
  <sodipodi:namedview
     id="namedview92"
     pagecolor="#ffffff"
     bordercolor="#000000"
     borderopacity="0.25"
     inkscape:showpageshadow="2"
     inkscape:pageopacity="0.0"
     inkscape:pagecheckerboard="0"
     inkscape:deskcolor="#d1d1d1"
     inkscape:document-units="pt"
     showgrid="false"
     inkscape:zoom="0.89678571"
     inkscape:cx="467.22421"
     inkscape:cy="467.22421"
     inkscape:window-width="1920"
     inkscape:window-height="1017"
     inkscape:window-x="-8"
     inkscape:window-y="-8"
     inkscape:window-maximized="1"
     inkscape:current-layer="svg90" />
  <g
     id="g88"
     transform="matrix(1.3482278,0,0,1.348228,-169.8767,-18.551617)">
    <path
       d="M 356.22,532.96 126,403.26 v -259.8 l 230.22,-129.7 230.22,129.7 v 259.8 z M 144.67,392.35 356.22,511.54 567.77,392.35 V 154.38 L 356.22,35.18 144.67,154.38 Z"
       id="path2" />
    <path
       d="m 437.32,170.79 32.637,36.801 -13.199,11.703 -32.637,-36.801 z"
       id="path4" />
    <path
       d="m 525.21,214.67 -65.219,-77.777 h -123.52 l -46.43,56 h -48.832 l -56.484,65.332 56.484,65.332 h 105.38 l 26.898,-31.109 h 86.5 z m -187.16,90.223 h -88.301 l -21.941,-25.375 44.316,-52.391 -13.465,-11.387 -42.527,50.277 -6.7266,-7.793 40.344,-46.668 h 88.301 l 40.344,46.668 z m 51.582,-31.113 13.453,-15.555 -56.496,-65.332 h -32.293 l 30.957,-37.332 h 106.03 l 49.566,59.109 -49.574,59.109 z"
       id="path6" />
    <path
       d="m 474.15,317.33 h -75.113 l -41.734,46.668 41.734,46.668 h 75.113 l 41.734,-46.668 z m -8.3516,74.668 h -58.422 l -25.031,-28 25.031,-28 h 58.422 l 11.125,12.445 h -33.594 v 18.668 h 44.727 z"
       id="path8" />
    <use
       x="70"
       y="653.33203"
       xlink:href="#j"
       id="use10" />
    <use
       x="92.832031"
       y="653.33203"
       xlink:href="#b"
       id="use12" />
    <use
       x="108.17578"
       y="653.33203"
       xlink:href="#a"
       id="use14" />
    <use
       x="129.27344"
       y="653.33203"
       xlink:href="#f"
       id="use16" />
    <use
       x="150.26953"
       y="653.33203"
       xlink:href="#e"
       id="use18" />
    <use
       x="165.14062"
       y="653.33203"
       xlink:href="#a"
       id="use20" />
    <use
       x="186.24219"
       y="653.33203"
       xlink:href="#l"
       id="use22" />
    <use
       x="219.34375"
       y="653.33203"
       xlink:href="#k"
       id="use24" />
    <use
       x="241.61328"
       y="653.33203"
       xlink:href="#g"
       id="use26" />
    <use
       x="272.72266"
       y="653.33203"
       xlink:href="#j"
       id="use28" />
    <use
       x="295.55469"
       y="653.33203"
       xlink:href="#f"
       id="use30" />
    <use
       x="316.55078"
       y="653.33203"
       xlink:href="#d"
       id="use32" />
    <use
       x="327.21484"
       y="653.33203"
       xlink:href="#d"
       id="use34" />
    <use
       x="337.87891"
       y="653.33203"
       xlink:href="#i"
       id="use36" />
    <use
       x="360.02734"
       y="653.33203"
       xlink:href="#h"
       id="use38" />
    <use
       x="403.27344"
       y="653.33203"
       xlink:href="#t"
       id="use40" />
    <use
       x="424.49609"
       y="653.33203"
       xlink:href="#f"
       id="use42" />
    <use
       x="445.49219"
       y="653.33203"
       xlink:href="#g"
       id="use44" />
    <use
       x="465.76953"
       y="653.33203"
       xlink:href="#d"
       id="use46" />
    <use
       x="476.43359"
       y="653.33203"
       xlink:href="#c"
       id="use48" />
    <use
       x="497.80859"
       y="653.33203"
       xlink:href="#b"
       id="use50" />
    <use
       x="70"
       y="684.44531"
       xlink:href="#s"
       id="use52" />
    <use
       x="83.535156"
       y="684.44531"
       xlink:href="#b"
       id="use54" />
    <use
       x="98.878906"
       y="684.44531"
       xlink:href="#c"
       id="use56" />
    <use
       x="120.25"
       y="684.44531"
       xlink:href="#h"
       id="use58" />
    <use
       x="163.5"
       y="684.44531"
       xlink:href="#e"
       id="use60" />
    <use
       x="178.37109"
       y="684.44531"
       xlink:href="#r"
       id="use62" />
    <use
       x="200.51953"
       y="684.44531"
       xlink:href="#a"
       id="use64" />
    <use
       x="232.45312"
       y="684.44531"
       xlink:href="#q"
       id="use66" />
    <use
       x="258.48828"
       y="684.44531"
       xlink:href="#c"
       id="use68" />
    <use
       x="279.86328"
       y="684.44531"
       xlink:href="#i"
       id="use70" />
    <use
       x="302.01172"
       y="684.44531"
       xlink:href="#p"
       id="use72" />
    <use
       x="334.99219"
       y="684.44531"
       xlink:href="#o"
       id="use74" />
    <use
       x="357.79297"
       y="684.44531"
       xlink:href="#b"
       id="use76" />
    <use
       x="373.13672"
       y="684.44531"
       xlink:href="#c"
       id="use78" />
    <use
       x="394.50781"
       y="684.44531"
       xlink:href="#n"
       id="use80" />
    <use
       x="405.17188"
       y="684.44531"
       xlink:href="#a"
       id="use82" />
    <use
       x="426.27344"
       y="684.44531"
       xlink:href="#m"
       id="use84" />
    <use
       x="444.71484"
       y="684.44531"
       xlink:href="#e"
       id="use86" />
  </g>
</svg>
