<?xml version="1.0" encoding="UTF-8" standalone="no"?>
<svg
   width="603pt"
   height="700pt"
   version="1.1"
   viewBox="0 0 603 700"
   id="svg98"
   sodipodi:docname="noun-wheat-53276.svg"
   inkscape:version="1.2 (dc2aedaf03, 2022-05-15)"
   xmlns:inkscape="http://www.inkscape.org/namespaces/inkscape"
   xmlns:sodipodi="http://sodipodi.sourceforge.net/DTD/sodipodi-0.dtd"
   xmlns:xlink="http://www.w3.org/1999/xlink"
   xmlns="http://www.w3.org/2000/svg"
   xmlns:svg="http://www.w3.org/2000/svg">
  <defs
     id="defs102" />
  <sodipodi:namedview
     id="namedview100"
     pagecolor="#ffffff"
     bordercolor="#000000"
     borderopacity="0.25"
     inkscape:showpageshadow="2"
     inkscape:pageopacity="0.0"
     inkscape:pagecheckerboard="0"
     inkscape:deskcolor="#d1d1d1"
     inkscape:document-units="pt"
     showgrid="false"
     inkscape:zoom="0.89678571"
     inkscape:cx="467.22421"
     inkscape:cy="467.22421"
     inkscape:window-width="1920"
     inkscape:window-height="1017"
     inkscape:window-x="-8"
     inkscape:window-y="-8"
     inkscape:window-maximized="1"
     inkscape:current-layer="svg98" />
  <g
     id="g96"
     transform="matrix(1.3723068,0,0,1.3723068,-178.39988,-27.006998)">
    <path
       fill="gold"
       d="M 350,529.77 130,402.23 V 147.22 L 350,19.68 570,147.21 V 402.22 Z M 148.33,391.67 350,508.58 551.67,391.67 V 157.79 L 350,40.88 148.33,157.79 Z"
       id="path2" />
    <path
       fill="gold"
       d="m 445.69,314.58 -12.246,-12.246 26.875,-26.875 12.246,12.246 z"
       id="path4" />
    <path
       fill="gold"
       d="m 445.69,265.71 -12.246,-12.246 26.875,-26.875 12.246,12.246 z"
       id="path6" />
    <path
       fill="gold"
       d="m 445.69,216.85 -12.246,-12.246 26.875,-26.875 12.246,12.246 z"
       id="path8" />
    <path
       fill="gold"
       d="m 265.04,216.84 -26.875,-26.875 12.246,-12.246 26.875,26.875 z"
       id="path10" />
    <path
       fill="gold"
       d="m 265.04,265.71 -26.875,-26.875 12.246,-12.246 26.875,26.875 z"
       id="path12" />
    <path
       fill="gold"
       d="m 265.04,314.58 -26.875,-26.875 12.246,-12.246 26.875,26.875 z"
       id="path14" />
    <path
       fill="gold"
       d="m 419.57,228.04 -10.039,0.14063 c 9.2031,-14.367 10.008,-30.469 10.039,-32.586 v -17.809 l -17.809,0.24609 c -1.5156,0.0195 -10.254,0.32422 -20.367,3.8789 1.2266,-4.3008 2.0352,-8.9609 2.0352,-13.914 0,-22.133 -15.539,-38.746 -17.312,-40.57 l -12.418,-12.766 -12.418,12.766 c -1.7734,1.8203 -17.312,18.438 -17.312,40.57 0,4.957 0.80859,9.6133 2.0352,13.914 -10.113,-3.5586 -18.848,-3.8633 -20.367,-3.8789 l -17.809,-0.24609 v 17.809 c 0.0312,2.1133 0.83594,18.219 10.039,32.586 L 287.8284,228.04 v 17.809 c 0.0312,2.1133 0.83594,18.219 10.039,32.586 l -10.039,-0.14062 v 17.809 c 0.0352,2.543 1.0391,25.281 16.691,40.934 13.934,13.934 33.445,16.059 39.363,16.383 l -0.004,74.5 h 18.332 v -74.215 0.0117 -0.29297 c 6.1094,-0.27344 25.984,-2.2383 40.145,-16.395 15.652,-15.652 17.039,-38.391 17.074,-40.934 v -17.809 l -9.9805,0.14062 c 9.2031,-14.367 10.098,-30.469 10.121,-32.586 z m -85.246,28.945 c 5.2305,5.2305 8.043,16.566 9.5625,22.203 v 6.6133 c -4.7891,-0.39062 -18.125,-2.2773 -27.117,-11.27 -11.129,-11.129 -11.371,-28.918 -11.371,-28.918 0.004,-0.004 17.797,0.24219 28.926,11.371 z m 27.75,28.848 0.14844,-0.17188 c 0,-0.72266 -0.14844,-6.4766 -0.14844,-6.4766 1.1055,-6.1953 4.0352,-15.43 10.809,-22.207 11.129,-11.129 29.023,-11.371 29.023,-11.371 0,0 -0.59375,17.797 -11.723,28.918 -9.3477,9.3477 -21.996,11.012 -28.109,11.309 z m 39.93,-90.48 c 0,0 -0.64062,17.797 -11.77,28.918 -9.3516,9.3516 -21.902,11.012 -28.012,11.305 v -0.17188 c 0,0.17188 -0.14844,-6.4727 -0.14844,-6.4727 1.1055,-6.1953 4.0352,-15.438 10.809,-22.215 11.133,-11.117 29.121,-11.363 29.121,-11.363 z m -48.301,-55.844 c 0,0 12.406,12.754 12.406,28.492 0,15.734 -12.406,28.492 -12.406,28.492 0,0 -12.406,-12.754 -12.406,-28.492 0,-15.738 12.406,-28.492 12.406,-28.492 z m -8.7617,96.031 c -4.7891,-0.39062 -19.176,-2.2773 -28.164,-11.27 -11.129,-11.129 -11.371,-28.918 -11.371,-28.918 0,0 17.797,0.24609 28.922,11.371 6.7773,6.7773 9.5078,16.012 10.617,22.207 z m -28.168,89.238 c -11.129,-11.129 -11.371,-28.918 -11.371,-28.918 0,0 17.797,0.24609 28.918,11.371 5.2305,5.2305 8.043,16.566 9.5625,22.203 v 6.6133 c -4.7852,-0.39062 -18.121,-2.2773 -27.109,-11.27 z m 73.461,0 c -9.3516,9.3516 -21.902,11.012 -28.012,11.305 v -0.17188 l -0.14844,-6.4766 c 1.1055,-6.1953 4.0352,-15.43 10.809,-22.207 11.129,-11.129 28.82,-11.371 28.82,-11.371 0.004,0 -0.34375,17.801 -11.469,28.922 z"
       id="path16" />
    <use
       y="566.66797"
       xlink:href="#j"
       id="use18" />
    <use
       x="2.546875"
       y="566.66797"
       xlink:href="#b"
       id="use20" />
    <use
       x="4.2617192"
       y="566.66797"
       xlink:href="#a"
       id="use22" />
    <use
       x="6.617188"
       y="566.66797"
       xlink:href="#f"
       id="use24" />
    <use
       x="8.9570312"
       y="566.66797"
       xlink:href="#e"
       id="use26" />
    <use
       x="10.617188"
       y="566.66797"
       xlink:href="#a"
       id="use28" />
    <use
       x="12.972656"
       y="566.66797"
       xlink:href="#l"
       id="use30" />
    <use
       x="16.667969"
       y="566.66797"
       xlink:href="#k"
       id="use32" />
    <use
       x="19.152344"
       y="566.66797"
       xlink:href="#g"
       id="use34" />
    <use
       x="22.625"
       y="566.66797"
       xlink:href="#j"
       id="use36" />
    <use
       x="25.171875"
       y="566.66797"
       xlink:href="#f"
       id="use38" />
    <use
       x="27.515625"
       y="566.66797"
       xlink:href="#d"
       id="use40" />
    <use
       x="28.707031"
       y="566.66797"
       xlink:href="#d"
       id="use42" />
    <use
       x="29.898438"
       y="566.66797"
       xlink:href="#i"
       id="use44" />
    <use
       x="32.367188"
       y="566.66797"
       xlink:href="#h"
       id="use46" />
    <use
       x="37.195312"
       y="566.66797"
       xlink:href="#t"
       id="use48" />
    <use
       x="39.5625"
       y="566.66797"
       xlink:href="#f"
       id="use50" />
    <use
       x="41.90625"
       y="566.66797"
       xlink:href="#g"
       id="use52" />
    <use
       x="44.171875"
       y="566.66797"
       xlink:href="#d"
       id="use54" />
    <use
       x="45.359375"
       y="566.66797"
       xlink:href="#c"
       id="use56" />
    <use
       x="47.746094"
       y="566.66797"
       xlink:href="#b"
       id="use58" />
    <use
       y="570.14062"
       xlink:href="#s"
       id="use60" />
    <use
       x="1.511719"
       y="570.14062"
       xlink:href="#b"
       id="use62" />
    <use
       x="3.222656"
       y="570.14062"
       xlink:href="#c"
       id="use64" />
    <use
       x="5.609375"
       y="570.14062"
       xlink:href="#h"
       id="use66" />
    <use
       x="10.433594"
       y="570.14062"
       xlink:href="#e"
       id="use68" />
    <use
       x="12.09375"
       y="570.14062"
       xlink:href="#r"
       id="use70" />
    <use
       x="14.566406"
       y="570.14062"
       xlink:href="#a"
       id="use72" />
    <use
       x="18.128906"
       y="570.14062"
       xlink:href="#q"
       id="use74" />
    <use
       x="21.035156"
       y="570.14062"
       xlink:href="#c"
       id="use76" />
    <use
       x="23.421875"
       y="570.14062"
       xlink:href="#i"
       id="use78" />
    <use
       x="25.894531"
       y="570.14062"
       xlink:href="#p"
       id="use80" />
    <use
       x="29.574219"
       y="570.14062"
       xlink:href="#o"
       id="use82" />
    <use
       x="32.121094"
       y="570.14062"
       xlink:href="#b"
       id="use84" />
    <use
       x="33.832031"
       y="570.14062"
       xlink:href="#c"
       id="use86" />
    <use
       x="36.21875"
       y="570.14062"
       xlink:href="#n"
       id="use88" />
    <use
       x="37.40625"
       y="570.14062"
       xlink:href="#a"
       id="use90" />
    <use
       x="39.761719"
       y="570.14062"
       xlink:href="#m"
       id="use92" />
    <use
       x="41.820312"
       y="570.14062"
       xlink:href="#e"
       id="use94" />
  </g>
</svg>
