<?xml version="1.0" encoding="UTF-8" standalone="no"?>
<svg
   width="603pt"
   height="700pt"
   version="1.1"
   viewBox="0 0 603 700"
   id="svg92"
   sodipodi:docname="noun-wood-53279.svg"
   inkscape:version="1.2 (dc2aedaf03, 2022-05-15)"
   xmlns:inkscape="http://www.inkscape.org/namespaces/inkscape"
   xmlns:sodipodi="http://sodipodi.sourceforge.net/DTD/sodipodi-0.dtd"
   xmlns:xlink="http://www.w3.org/1999/xlink"
   xmlns="http://www.w3.org/2000/svg"
   xmlns:svg="http://www.w3.org/2000/svg">
  <defs
     id="defs96" />
  <sodipodi:namedview
     id="namedview94"
     pagecolor="#ffffff"
     bordercolor="#000000"
     borderopacity="0.25"
     inkscape:showpageshadow="2"
     inkscape:pageopacity="0.0"
     inkscape:pagecheckerboard="0"
     inkscape:deskcolor="#d1d1d1"
     inkscape:document-units="pt"
     showgrid="false"
     inkscape:zoom="0.89678571"
     inkscape:cx="467.22421"
     inkscape:cy="483.95062"
     inkscape:window-width="1920"
     inkscape:window-height="1017"
     inkscape:window-x="-8"
     inkscape:window-y="-8"
     inkscape:window-maximized="1"
     inkscape:current-layer="svg92" />
  <g
     id="g90"
     transform="matrix(1.3478386,0,0,1.3478386,-169.82766,-18.443823)">
    <path
       fill="gold"
       d="m 350,13.684 -224,129.85 v 259.65 l 224,129.85 224,-129.85 V 143.534 Z M 555.33,392.424 350,511.464 144.67,392.424 V 154.294 L 350,35.254 555.33,154.294 Z"
       id="path2" />
    <path
       fill="gold"
       d="m 256.43,204.51 c -12.812,11.289 -20.57,28.223 -20.57,46.605 0,4.3047 0.45312,8.5117 1.3008,12.57 l -39.715,39.711 c -0.125,0.125 -0.25,0.24219 -0.36719,0.36719 l -0.64062,0.64062 0.0312,0.0312 c -10.66,11.07 -17.254,26.078 -17.254,42.629 0,33.938 27.609,61.543 61.543,61.543 22.281,0 41.781,-11.945 52.578,-29.734 10.801,17.789 30.297,29.734 52.586,29.734 22.164,0 41.562,-11.816 52.402,-29.445 l 101.07,-124.87 0.66406,0.41797 c 5.3633,-8.5312 8.1953,-18.395 8.1953,-28.512 0,-29.566 -24.051,-53.617 -53.617,-53.617 -2.3633,0 -4.6992,0.20703 -7.0078,0.50391 1.1523,-4.4062 1.8047,-8.9648 1.8047,-13.641 0,-29.562 -24.051,-53.609 -53.617,-53.609 -14.324,0 -27.719,5.5703 -37.832,15.656 z m 40.965,2.6953 c 24.211,0 43.91,19.699 43.91,43.91 0,24.211 -19.699,43.902 -43.91,43.902 -24.211,0 -43.902,-19.691 -43.902,-43.902 0,-24.211 19.691,-43.91 43.902,-43.91 z m -53.316,74.496 c 0.80859,1.4062 1.6445,2.793 2.5586,4.125 -1.9414,-0.1875 -3.9023,-0.29688 -5.8867,-0.29688 -0.17578,0 -0.34375,0.0234 -0.52344,0.0234 z m 37.48,68.121 c 0,22.922 -19.008,41.148 -42.285,41.148 -24.211,0 -43.168,-19.699 -43.168,-43.91 0,-11.961 5.1875,-22.797 12.969,-30.727 l 0.75781,-0.57813 c 7.9258,-7.7773 17.391,-12.602 29.352,-12.602 23.277,0 42.379,18.219 42.379,41.141 z m 98.742,24.449 c -8.0469,10.156 -20.457,16.699 -34.391,16.699 -23.277,0 -42.328,-18.227 -43.766,-41.148 0.043,-0.92188 0.13672,-1.8281 0.13672,-2.7578 0,-0.92578 -0.0977,-1.8359 -0.13672,-2.7578 1.4375,-22.922 20.488,-41.141 43.766,-41.141 24.211,0 43.902,19.691 43.902,43.902 0,7.9258 -2.1406,15.344 -5.832,21.773 z m 54.523,-178.1 c 5.832,-3.8633 12.664,-5.9531 19.824,-5.9531 19.836,0 35.984,16.148 35.984,35.984 0,5.1836 -1.1211,10.246 -3.2422,14.902 l -80.328,99.227 c -0.52734,-4.8164 -1.6562,-9.4453 -3.2344,-13.871 l 53.094,-61.09 -13.309,-11.566 -48.762,56.105 c -9.3008,-12.227 -23.039,-20.852 -38.82,-23.477 l 76.043,-88.035 c 0.49219,-0.40625 0.96484,-0.83984 1.4766,-1.2148 z m -13.133,-61.676 -54.297,58.375 12.918,12.008 50.383,-54.164 c 0.70312,2.8047 1.1211,5.7188 1.1211,8.7344 0,6.4844 -1.8281,12.637 -5.0273,18.082 l -6.5078,7.5352 c -1.2148,1.0195 -3.1289,3.6211 -3.1289,3.6211 l -58.477,67.699 c 0.14844,-1.75 0.26562,-3.5039 0.26562,-5.2812 0,-32.484 -25.316,-59.105 -57.25,-61.328 l 71.566,-57.949 -0.19141,-0.23828 c 6.4102,-5.2578 14.348,-8.125 22.762,-8.125 10.145,0.0117 19.309,4.25 25.863,11.031 z"
       id="path4" />
    <path
       fill="gold"
       d="m 300.22,284.82 v -17.633 c -12.445,0 -18.902,-5.8477 -18.902,-18.293 h -17.633 c -0.004,18.664 17.867,35.926 36.535,35.926 z"
       id="path6" />
    <path
       fill="gold"
       d="m 343.78,369.83 v -6.6953 c -6.2227,0 -13.945,-8.4688 -13.945,-14.691 h -17.633 c 0,18.668 12.91,32.324 31.578,32.324 z"
       id="path8" />
    <path
       fill="gold"
       d="m 238,369.22 v -6.0859 c -6.2227,0 -13.336,-8.4688 -13.336,-14.691 h -17.633 c 0,18.668 12.301,32.324 30.969,32.324 z"
       id="path10" />
    <use
       x="70"
       y="653.33203"
       xlink:href="#j"
       id="use12" />
    <use
       x="92.832031"
       y="653.33203"
       xlink:href="#b"
       id="use14" />
    <use
       x="108.17578"
       y="653.33203"
       xlink:href="#a"
       id="use16" />
    <use
       x="129.27344"
       y="653.33203"
       xlink:href="#f"
       id="use18" />
    <use
       x="150.26953"
       y="653.33203"
       xlink:href="#e"
       id="use20" />
    <use
       x="165.14062"
       y="653.33203"
       xlink:href="#a"
       id="use22" />
    <use
       x="186.24219"
       y="653.33203"
       xlink:href="#l"
       id="use24" />
    <use
       x="219.34375"
       y="653.33203"
       xlink:href="#k"
       id="use26" />
    <use
       x="241.61328"
       y="653.33203"
       xlink:href="#g"
       id="use28" />
    <use
       x="272.72266"
       y="653.33203"
       xlink:href="#j"
       id="use30" />
    <use
       x="295.55469"
       y="653.33203"
       xlink:href="#f"
       id="use32" />
    <use
       x="316.55078"
       y="653.33203"
       xlink:href="#d"
       id="use34" />
    <use
       x="327.21484"
       y="653.33203"
       xlink:href="#d"
       id="use36" />
    <use
       x="337.87891"
       y="653.33203"
       xlink:href="#i"
       id="use38" />
    <use
       x="360.02734"
       y="653.33203"
       xlink:href="#h"
       id="use40" />
    <use
       x="403.27344"
       y="653.33203"
       xlink:href="#t"
       id="use42" />
    <use
       x="424.49609"
       y="653.33203"
       xlink:href="#f"
       id="use44" />
    <use
       x="445.49219"
       y="653.33203"
       xlink:href="#g"
       id="use46" />
    <use
       x="465.76953"
       y="653.33203"
       xlink:href="#d"
       id="use48" />
    <use
       x="476.43359"
       y="653.33203"
       xlink:href="#c"
       id="use50" />
    <use
       x="497.80859"
       y="653.33203"
       xlink:href="#b"
       id="use52" />
    <use
       x="70"
       y="684.44531"
       xlink:href="#s"
       id="use54" />
    <use
       x="83.535156"
       y="684.44531"
       xlink:href="#b"
       id="use56" />
    <use
       x="98.878906"
       y="684.44531"
       xlink:href="#c"
       id="use58" />
    <use
       x="120.25"
       y="684.44531"
       xlink:href="#h"
       id="use60" />
    <use
       x="163.5"
       y="684.44531"
       xlink:href="#e"
       id="use62" />
    <use
       x="178.37109"
       y="684.44531"
       xlink:href="#r"
       id="use64" />
    <use
       x="200.51953"
       y="684.44531"
       xlink:href="#a"
       id="use66" />
    <use
       x="232.45312"
       y="684.44531"
       xlink:href="#q"
       id="use68" />
    <use
       x="258.48828"
       y="684.44531"
       xlink:href="#c"
       id="use70" />
    <use
       x="279.86328"
       y="684.44531"
       xlink:href="#i"
       id="use72" />
    <use
       x="302.01172"
       y="684.44531"
       xlink:href="#p"
       id="use74" />
    <use
       x="334.99219"
       y="684.44531"
       xlink:href="#o"
       id="use76" />
    <use
       x="357.79297"
       y="684.44531"
       xlink:href="#b"
       id="use78" />
    <use
       x="373.13672"
       y="684.44531"
       xlink:href="#c"
       id="use80" />
    <use
       x="394.50781"
       y="684.44531"
       xlink:href="#n"
       id="use82" />
    <use
       x="405.17188"
       y="684.44531"
       xlink:href="#a"
       id="use84" />
    <use
       x="426.27344"
       y="684.44531"
       xlink:href="#m"
       id="use86" />
    <use
       x="444.71484"
       y="684.44531"
       xlink:href="#e"
       id="use88" />
  </g>
</svg>
