<?xml version="1.0" encoding="UTF-8" standalone="no"?>
<svg
   width="603pt"
   height="700pt"
   version="1.1"
   viewBox="0 0 603 700"
   id="svg92"
   sodipodi:docname="noun-wool-53278.svg"
   inkscape:version="1.2 (dc2aedaf03, 2022-05-15)"
   xmlns:inkscape="http://www.inkscape.org/namespaces/inkscape"
   xmlns:sodipodi="http://sodipodi.sourceforge.net/DTD/sodipodi-0.dtd"
   xmlns:xlink="http://www.w3.org/1999/xlink"
   xmlns="http://www.w3.org/2000/svg"
   xmlns:svg="http://www.w3.org/2000/svg">
  <defs
     id="defs96" />
  <sodipodi:namedview
     id="namedview94"
     pagecolor="#ffffff"
     bordercolor="#000000"
     borderopacity="0.25"
     inkscape:showpageshadow="2"
     inkscape:pageopacity="0.0"
     inkscape:pagecheckerboard="0"
     inkscape:deskcolor="#d1d1d1"
     inkscape:document-units="pt"
     showgrid="false"
     inkscape:zoom="0.89678571"
     inkscape:cx="467.22421"
     inkscape:cy="467.22421"
     inkscape:window-width="1920"
     inkscape:window-height="1017"
     inkscape:window-x="-8"
     inkscape:window-y="-8"
     inkscape:window-maximized="1"
     inkscape:current-layer="svg92" />
  <g
     id="g90"
     transform="matrix(1.3478646,0,0,1.3478646,-178.21466,-18.452266)">
    <path
       d="m 356.22,533.03 -224,-129.85 V 143.54 l 224,-129.85 224,129.85 V 403.19 Z M 150.89,392.42 356.22,511.46 561.55,392.42 V 154.29 L 356.22,35.25 150.89,154.29 Z"
       id="path2" />
    <path
       d="m 265.92,214.93 c 15.656,0 28.387,-15.816 28.387,-28.262 h -17.633 c 0,6.2227 -4.7969,10.629 -10.723,10.629 -8.6289,0 -15.625,-7.1445 -15.625,-15.766 0,-11.996 9.8203,-21.758 21.809,-21.758 16.207,0 29.504,13.191 29.504,29.406 0,21.48 -20.086,38.957 -38.754,38.957 v 17.633 c 31.109,0 56.387,-25.375 56.387,-56.574 0,-25.941 -21.297,-47.02 -47.238,-47.02 -21.723,0 -39.395,17.703 -39.395,39.426 0.008,18.336 14.934,33.328 33.281,33.328 z"
       id="path4" />
    <path
       d="m 507.74,242.39 14.082,-14.086 0.082,-30.82 -10.875,-10.871 0.0937,-0.0937 -16.574,-16.574 -30.82,-0.082 -14.168,14.176 -0.66016,-0.0195 -14.082,-14.082 -30.82,-0.082 -14.168,14.176 -0.66016,-0.0195 -14.082,-14.082 -30.812,-0.082 -16.855,16.852 12.469,12.469 11.668,-11.66 16.203,0.043 13.918,13.918 15.27,0.375 14.344,-14.336 16.203,0.043 13.918,13.918 15.27,0.375 14.344,-14.336 16.203,0.043 5.457,5.4492 -0.0937,0.0937 11.66,11.668 1.4688,16.203 -12.609,13.941 v 15.27 l 12.645,14.344 -0.80078,31.453 -24.512,15.141 h -140.15 l -15.73,-12.992 -11.25,-23.59 -53.281,-7.125 -48.77,11.305 c -6.3477,-5.918 -12.145,-17.555 -15.52,-26.48 l 33.898,-37.223 -13.809,-12.57 -41.211,45.254 1.5664,5.0977 c 1.0312,3.3398 10.566,32.965 27.906,43.898 l 3.293,2.0781 53.535,-12.406 39.891,5.3203 8.6719,18.195 21.852,18.051 v 39.188 h -12.445 v 18.668 h 31.109 v -56 h 24.891 v 49.777 h -12.445 v 18.668 h 31.109 l 0.004,-68.445 h 31.109 v 37.332 h -18.668 v 18.668 h 37.332 v -56 h 24.34 l 0.55469,0.86719 v 48.91 h -12.445 v 18.668 h 31.109 l 0.004,-68.445 v -1.8555 l 34.926,-22.277 0.0742,-48.426 -14.168,-14.168 z"
       id="path6" />
    <path
       d="m 468.78,248.76 12.469,-12.461 -16.574,-16.578 -30.82,-0.082 -14.172,14.176 -0.66016,-0.0195 -14.082,-14.074 -30.816,-0.082 -16.844,16.852 12.469,12.469 11.664,-11.66 16.199,0.043 13.926,13.918 15.27,0.36719 14.336,-14.328 16.203,0.043 z"
       id="path8" />
    <path
       d="m 403.99,259.46 -16.84,16.848 12.469,12.473 11.664,-11.664 16.199,0.0469 11.43,11.422 12.469,-12.469 -16.57,-16.574 z"
       id="path10" />
    <use
       x="70"
       y="653.33203"
       xlink:href="#j"
       id="use12" />
    <use
       x="92.832031"
       y="653.33203"
       xlink:href="#b"
       id="use14" />
    <use
       x="108.17578"
       y="653.33203"
       xlink:href="#a"
       id="use16" />
    <use
       x="129.27344"
       y="653.33203"
       xlink:href="#f"
       id="use18" />
    <use
       x="150.26953"
       y="653.33203"
       xlink:href="#e"
       id="use20" />
    <use
       x="165.14062"
       y="653.33203"
       xlink:href="#a"
       id="use22" />
    <use
       x="186.24219"
       y="653.33203"
       xlink:href="#l"
       id="use24" />
    <use
       x="219.34375"
       y="653.33203"
       xlink:href="#k"
       id="use26" />
    <use
       x="241.61328"
       y="653.33203"
       xlink:href="#g"
       id="use28" />
    <use
       x="272.72266"
       y="653.33203"
       xlink:href="#j"
       id="use30" />
    <use
       x="295.55469"
       y="653.33203"
       xlink:href="#f"
       id="use32" />
    <use
       x="316.55078"
       y="653.33203"
       xlink:href="#d"
       id="use34" />
    <use
       x="327.21484"
       y="653.33203"
       xlink:href="#d"
       id="use36" />
    <use
       x="337.87891"
       y="653.33203"
       xlink:href="#i"
       id="use38" />
    <use
       x="360.02734"
       y="653.33203"
       xlink:href="#h"
       id="use40" />
    <use
       x="403.27344"
       y="653.33203"
       xlink:href="#t"
       id="use42" />
    <use
       x="424.49609"
       y="653.33203"
       xlink:href="#f"
       id="use44" />
    <use
       x="445.49219"
       y="653.33203"
       xlink:href="#g"
       id="use46" />
    <use
       x="465.76953"
       y="653.33203"
       xlink:href="#d"
       id="use48" />
    <use
       x="476.43359"
       y="653.33203"
       xlink:href="#c"
       id="use50" />
    <use
       x="497.80859"
       y="653.33203"
       xlink:href="#b"
       id="use52" />
    <use
       x="70"
       y="684.44531"
       xlink:href="#s"
       id="use54" />
    <use
       x="83.535156"
       y="684.44531"
       xlink:href="#b"
       id="use56" />
    <use
       x="98.878906"
       y="684.44531"
       xlink:href="#c"
       id="use58" />
    <use
       x="120.25"
       y="684.44531"
       xlink:href="#h"
       id="use60" />
    <use
       x="163.5"
       y="684.44531"
       xlink:href="#e"
       id="use62" />
    <use
       x="178.37109"
       y="684.44531"
       xlink:href="#r"
       id="use64" />
    <use
       x="200.51953"
       y="684.44531"
       xlink:href="#a"
       id="use66" />
    <use
       x="232.45312"
       y="684.44531"
       xlink:href="#q"
       id="use68" />
    <use
       x="258.48828"
       y="684.44531"
       xlink:href="#c"
       id="use70" />
    <use
       x="279.86328"
       y="684.44531"
       xlink:href="#i"
       id="use72" />
    <use
       x="302.01172"
       y="684.44531"
       xlink:href="#p"
       id="use74" />
    <use
       x="334.99219"
       y="684.44531"
       xlink:href="#o"
       id="use76" />
    <use
       x="357.79297"
       y="684.44531"
       xlink:href="#b"
       id="use78" />
    <use
       x="373.13672"
       y="684.44531"
       xlink:href="#c"
       id="use80" />
    <use
       x="394.50781"
       y="684.44531"
       xlink:href="#n"
       id="use82" />
    <use
       x="405.17188"
       y="684.44531"
       xlink:href="#a"
       id="use84" />
    <use
       x="426.27344"
       y="684.44531"
       xlink:href="#m"
       id="use86" />
    <use
       x="444.71484"
       y="684.44531"
       xlink:href="#e"
       id="use88" />
  </g>
</svg>
