<?xml version="1.0" encoding="UTF-8" standalone="no"?>
<svg
   width="700pt"
   height="700pt"
   version="1.1"
   viewBox="0 0 700 700"
   id="svg4"
   sodipodi:docname="devCard.svg"
   inkscape:version="1.2 (dc2aedaf03, 2022-05-15)"
   xmlns:inkscape="http://www.inkscape.org/namespaces/inkscape"
   xmlns:sodipodi="http://sodipodi.sourceforge.net/DTD/sodipodi-0.dtd"
   xmlns="http://www.w3.org/2000/svg"
   xmlns:svg="http://www.w3.org/2000/svg">
  <defs
     id="defs8" />
  <sodipodi:namedview
     id="namedview6"
     pagecolor="#ffffff"
     bordercolor="#000000"
     borderopacity="0.25"
     inkscape:showpageshadow="2"
     inkscape:pageopacity="0.0"
     inkscape:pagecheckerboard="0"
     inkscape:deskcolor="#d1d1d1"
     inkscape:document-units="pt"
     showgrid="false"
     inkscape:zoom="0.89678571"
     inkscape:cx="467.22421"
     inkscape:cy="467.22421"
     inkscape:window-width="1920"
     inkscape:window-height="1017"
     inkscape:window-x="-8"
     inkscape:window-y="-8"
     inkscape:window-maximized="1"
     inkscape:current-layer="svg4" />
  <path
     d="M 350.04166,0 C 156.82377,0 0,156.78045 0,349.99306 0,543.19178 156.80989,700 350.04166,700 543.27343,700 700,543.20566 700,349.99306 700,156.78045 543.25954,0 350.04166,0 Z m 0,15.548922 c 184.8171,0 334.47592,149.643968 334.47592,334.442748 0,184.79878 -149.64493,334.45663 -334.47592,334.45663 -184.831,0 -334.48981,-149.65785 -334.48981,-334.45663 0,-184.79878 149.6727,-334.442748 334.48981,-334.442748 z m 2.85307,5.662118 c -6.12382,-0.515229 -12.23667,2.451395 -15.01865,7.83694 -3.71009,7.169943 -0.23866,15.679433 6.8181,19.193526 7.06207,3.51437 15.75736,1.079275 19.8786,-5.727235 4.12235,-6.795625 2.00688,-15.641946 -5.67893,-19.589226 -1.92009,-0.981655 -3.95419,-1.540314 -5.99898,-1.708451 z m -2.85307,34.807704 c -4.84913,0 -9.7145,0.124735 -14.5632,0.363377 -1.84956,0.0922 -3.67204,0.271173 -5.51091,0.395922 -2.57106,0.173553 -5.1528,0.303717 -7.71303,0.547774 h -0.005 c -0.21153,0.0217 -0.4285,0.05423 -0.64004,0.0922 C 181.14292,70.9118 69.48895,183.32 57.17244,324.10585 c -0.0814,0.36337 -0.14102,0.72675 -0.16814,1.09554 -0.17357,2.06639 -0.26579,4.12736 -0.39596,6.19361 -0.0976,1.58363 -0.21697,3.16185 -0.28748,4.75103 -0.21153,4.60456 -0.34714,9.20912 -0.34714,13.83534 0,152.75403 116.75276,278.43386 265.8256,292.66517 0.15188,0.0271 0.30375,0.0433 0.45561,0.0597 1.58921,0.15187 3.18938,0.21151 4.784,0.33626 2.9182,0.22779 5.82542,0.4827 8.76528,0.62371 4.74609,0.23321 9.50301,0.36338 14.24383,0.36338 4.77858,0 9.54092,-0.1301 14.30909,-0.36338 2.72824,-0.1301 5.42954,-0.36879 8.14154,-0.57489 1.75736,-0.13565 3.51471,-0.21151 5.27221,-0.37965 l -0.005,-0.006 c 0.0868,-0.006 0.17357,-0.0163 0.26035,-0.0271 137.25621,-13.04893 245.99699,-121.11192 262.36809,-257.51036 1.15532,-1.24198 1.87678,-2.83113 2.05035,-4.5232 0.79733,-7.59299 1.20956,-15.22403 1.41022,-22.85479 h 0.19525 V 342.2413 h -0.15186 c -0.14645,-5.68933 -0.39596,-11.35686 -0.8787,-17.04009 -0.14645,-1.68665 -0.84073,-3.28125 -1.97439,-4.53944 C 627.131,181.5842 517.34325,70.69104 378.20416,57.389974 c -0.14645,-0.0217 -0.29291,-0.04339 -0.43936,-0.05966 -2.35944,-0.22237 -4.7297,-0.336262 -7.0947,-0.498957 -2.09908,-0.146437 -4.18733,-0.352534 -6.3028,-0.455582 -4.77317,-0.233213 -9.53551,-0.347106 -14.31881,-0.347106 z m -155.85178,6.318424 c -8.62962,0.406766 -15.52409,7.701432 -15.17139,15.776622 0.35257,8.06478 7.58819,13.7269 15.45882,13.25511 7.87576,-0.46642 14.2105,-6.90961 14.39518,-14.86582 0.18442,-7.94551 -6.0587,-14.572858 -14.68817,-14.166051 z m 312.39784,1.534899 c -1.85498,0.135593 -3.69385,0.607434 -5.3915,1.458952 -0.42308,0.211512 -0.8353,0.460998 -1.23126,0.699639 -4.48574,2.869032 -6.7259,7.999662 -6.16714,13.227902 0.26035,2.42432 1.11736,4.75645 2.46247,6.79021 4.35007,6.57875 13.08285,8.84035 20.06328,5.01136 6.96986,-3.82357 9.57883,-12.5391 4.90327,-19.80165 -3.25992,-5.07093 -9.06895,-7.782793 -14.63957,-7.381401 z M 350.04166,71.56808 c 6.43291,0 12.81167,0.41761 19.22875,0.86777 v 156.39169 c -6.281,-0.9925 -12.66518,-1.67041 -19.22875,-1.67041 -6.57399,0 -12.99066,0.67252 -19.28847,1.67041 V 72.43585 c 6.42209,-0.44473 12.84958,-0.86777 19.28847,-0.86777 z m 34.77922,2.16941 c 35.92894,4.47446 69.7209,15.73913 100.04145,32.5418 L 384.82088,206.33165 Z M 302.90149,75.54896 75.58062,302.84729 C 95.35646,186.78366 186.82774,95.32007 302.90149,75.54896 Z m 12.28555,6.31843 V 232.2611 c -40.71253,12.06732 -72.55217,44.69465 -83.63842,85.81689 H 78.93218 Z m 181.40125,31.29916 c 39.42256,24.43898 72.24252,58.44418 95.30092,98.78335 L 485.74643,318.08215 H 468.47554 C 457.39415,276.94464 425.55521,244.30565 384.82601,232.25 v -7.33253 z m -146.57621,18.75479 c -8.16861,0 -14.78537,6.62207 -14.79092,14.78945 0,3.92118 1.55671,7.6906 4.32841,10.46744 2.77712,2.77684 6.54136,4.33882 10.46307,4.33882 3.92698,0 7.69136,-1.56198 10.46306,-4.33882 2.77712,-2.77684 4.33383,-6.54612 4.33383,-10.46744 -0.005,-8.1678 -6.62814,-14.78945 -14.79648,-14.78945 z M 79.67367,176.45909 c -2.79878,-0.14101 -5.71697,0.58575 -8.44521,2.33755 -7.26827,4.67509 -9.57342,14.4479 -5.22334,21.25949 4.34466,6.80646 13.44083,8.05395 20.01468,3.70431 6.5794,-4.34965 8.84123,-13.08156 5.01186,-20.06129 -2.38665,-4.34964 -6.69327,-7.00181 -11.35799,-7.24034 z m 542.24589,2.56539 c -8.06558,0.35253 -13.72284,7.58744 -13.25642,15.45728 0.46647,7.87498 6.91029,14.22021 14.86729,14.39376 7.95172,0.18439 14.57431,-6.0581 14.16746,-14.68671 -0.40681,-8.62876 -7.70219,-15.52255 -15.77819,-15.16989 z M 598.396,224.03429 c 14.63401,28.82639 24.39697,60.5157 28.2155,94.04328 l -122.28477,0.006 z m -248.35754,18.67843 c 4.08972,0 8.15237,0.27117 12.19321,0.74302 0.62377,0.0705 1.23126,0.2061 1.85498,0.28745 3.59608,0.48811 7.17607,1.11182 10.72342,1.95795 40.06684,9.4532 71.37467,41.21943 80.05316,81.58081 v 0.006 c 0.0108,0.0705 0.0271,0.14101 0.0434,0.21151 1.59462,7.40847 2.41373,14.91441 2.41373,22.49103 0,3.22696 -0.20612,6.41603 -0.48816,9.56705 -0.0814,0.88403 -0.1573,1.7626 -0.26036,2.64119 -0.33629,2.98288 -0.77563,5.93327 -1.35059,8.84035 -0.179,0.88945 -0.40681,1.75718 -0.6075,2.64119 -9.03104,40.17256 -40.49591,71.68277 -80.62802,80.82135 -3.02123,0.69421 -6.06953,1.1986 -9.12866,1.62709 -0.93294,0.1301 -1.83873,0.31999 -2.77712,0.42304 -3.99752,0.45015 -8.00587,0.71048 -12.04144,0.7159 -4.02459,-0.006 -8.04933,-0.2549 -12.04143,-0.69964 -1.02515,-0.11385 -2.01772,-0.32542 -3.03748,-0.47184 -2.93444,-0.4122 -5.85804,-0.90572 -8.74902,-1.56198 -40.10573,-9.0736 -71.56491,-40.49189 -80.68774,-80.57698 -0.2278,-0.9925 -0.49902,-1.9742 -0.6997,-2.97747 -0.56954,-2.88528 -1.00346,-5.81401 -1.33433,-8.77524 -0.0976,-0.86233 -0.17899,-1.73011 -0.26035,-2.59787 -0.28204,-3.16726 -0.47189,-6.37257 -0.47189,-9.61051 0,-3.72055 0.18442,-7.43027 0.5641,-11.11819 0.11391,-1.13352 0.36342,-2.21828 0.51528,-3.34082 0.34171,-2.56538 0.67801,-5.12522 1.21499,-7.6688 8.50492,-40.69322 40.02381,-72.7463 80.35726,-82.19867 3.4171,-0.8081 6.88308,-1.41008 10.35989,-1.882 0.70513,-0.0922 1.38856,-0.23864 2.09367,-0.31999 4.04098,-0.47184 8.1089,-0.74303 12.18238,-0.74303 z m 0,37.9969 c -38.18535,0 -69.34599,31.09368 -69.34599,69.27941 0,38.18157 31.15647,69.33911 69.34599,69.33911 38.18536,0 69.27101,-31.15338 69.27101,-69.33911 0,-38.18156 -31.0801,-69.27941 -69.27101,-69.27941 z m 0,14.86582 c 30.14144,0 54.41482,24.26959 54.41482,54.40943 0,30.13983 -24.27199,54.40942 -54.41482,54.40942 -30.14282,0 -54.41482,-24.26959 -54.41482,-54.40942 0,-30.13984 24.272,-54.40943 54.41482,-54.40943 z M 34.34974,333.40435 c -4.5996,0.28744 -8.98231,2.90707 -11.45019,7.71226 -3.94878,7.6906 -1.05769,17.30111 6.11826,21.01652 7.17066,3.70972 15.68099,0.23864 19.19543,-6.81742 3.51472,-7.06137 1.07938,-15.7558 -5.7278,-19.87663 -2.54925,-1.54573 -5.38066,-2.20731 -8.14153,-2.03376 z m 37.86043,0.16812 h 156.19892 c -0.7214,5.38555 -1.23126,10.83621 -1.23126,16.41669 0,1.91449 0.1139,3.81815 0.28747,5.71099 0.25493,5.55909 0.82989,11.04224 1.80624,16.38475 H 72.66993 c -0.5858,-7.35433 -1.14989,-14.72004 -1.15532,-22.09533 0,-5.48856 0.37426,-10.93381 0.69971,-16.41668 z m 399.36325,0 h 156.2128 c 0.32545,5.47774 0.68344,10.9284 0.68344,16.41669 0,7.37598 -0.56411,14.74086 -1.15533,22.09532 H 470.69885 c 0.97632,-5.34764 1.55129,-10.82537 1.80623,-16.38475 0.179,-1.89283 0.28748,-3.7965 0.28748,-5.71099 0,-5.58076 -0.50444,-11.03142 -1.23127,-16.41668 z m 193.88439,2.80933 c -5.58131,-0.26033 -11.03251,3.0101 -13.66869,8.30887 -3.51472,7.06136 -1.07938,15.75579 5.7278,19.87662 6.80171,4.12195 15.6435,2.00669 19.59117,-5.67836 3.94878,-7.6906 1.05769,-17.30111 -6.11827,-21.01652 -1.7954,-0.92742 -3.66662,-1.39925 -5.52715,-1.48603 z m -518.76538,1.67041 c -8.16861,0 -14.79092,6.62207 -14.79092,14.78946 0,8.1678 6.62273,14.78945 14.79092,14.78945 3.92157,0.006 7.69137,-1.55114 10.46848,-4.32798 2.77712,-2.77143 4.33383,-6.5353 4.33925,-10.46203 -0.005,-3.92659 -1.56213,-7.6906 -4.33925,-10.46203 -2.77711,-2.77684 -6.54677,-4.3334 -10.46848,-4.32798 z m 406.62541,0 c -3.92698,-0.006 -7.69136,1.55114 -10.46848,4.32799 -2.77712,2.77142 -4.33924,6.53529 -4.33924,10.46202 0,3.92659 1.56212,7.6906 4.33924,10.46203 2.77712,2.77684 6.54136,4.3334 10.46848,4.32798 8.16861,0 14.79092,-6.62207 14.79092,-14.78945 0,-8.1678 -6.62272,-14.78946 -14.79092,-14.78946 z M 74.11249,387.65076 h 129.36365 l -97.18242,97.17278 C 89.94067,455.31405 78.82109,422.5015 74.11249,387.65076 Z m 147.937,0 h 11.09764 c 12.40482,38.40927 43.22443,68.55326 82.02769,80.06188 v 20.91239 L 211.93273,591.83466 c -40.339,-23.06027 -74.34757,-55.87837 -98.78342,-95.30257 z m 244.80283,0 H 625.8839 c -0.15188,1.12266 -0.26036,2.25618 -0.42308,3.37344 L 391.04441,625.44513 c -2.06118,0.30372 -4.14943,0.5315 -6.22685,0.79183 V 467.72099 c 38.81992,-11.49238 69.64453,-41.64707 82.04435,-80.07299 z m 154.12997,26.45635 C 596.88802,516.47536 516.43357,596.94822 414.05933,621.00955 Z m -290.25034,57.05576 c 6.29739,0.99792 12.71392,1.67041 19.28846,1.67041 6.55775,0 12.94178,-0.67794 19.22876,-1.67041 v 156.39169 c -6.41667,0.44473 -12.79529,0.91115 -19.22876,0.91115 -6.43833,0 -12.86582,-0.46642 -19.28846,-0.91115 z M 76.45916,491.13252 c -7.95172,-0.1844 -14.57431,6.0581 -14.16746,14.68671 0.4068,8.62876 7.70219,15.52255 15.77818,15.16989 8.06558,-0.35254 13.72826,-7.58744 13.25643,-15.45729 -0.46647,-7.87498 -6.9103,-14.2202 -14.86729,-14.39376 z m 545.59232,2.58163 c -2.79337,0.0543 -5.61395,0.90572 -8.08183,2.53817 -6.57941,4.34965 -8.84123,13.08156 -5.01186,20.06129 3.82395,6.96918 12.54035,9.57788 19.80362,4.90279 7.26827,-4.67509 9.57341,-14.43263 5.22334,-21.24422 -2.71741,-4.25204 -7.28452,-6.35092 -11.93841,-6.25872 z m -306.89916,13.51544 v 119.01402 c -32.45199,-4.05682 -63.16273,-13.67275 -91.1519,-27.88781 z m 34.82782,31.26168 c -3.92156,0 -7.68594,1.56197 -10.46306,4.33881 -2.7717,2.77684 -4.32841,6.54071 -4.32841,10.46744 0.005,8.16781 6.62272,14.78946 14.79092,14.78946 8.16861,0 14.79092,-6.62207 14.79648,-14.78946 0,-3.92659 -1.55672,-7.6906 -4.33383,-10.46744 -2.77171,-2.77684 -6.53595,-4.33881 -10.46307,-4.33881 z m -158.05959,68.62407 c -2.78794,-0.18439 -5.64643,0.40134 -8.26081,1.83855 -6.96986,3.82357 -9.57883,12.5391 -4.90327,19.80165 4.67555,7.26755 14.43406,9.57247 21.24633,5.22283 6.80713,-4.34423 8.07099,-13.4395 3.72092,-20.0127 -2.71741,-4.11097 -7.15427,-6.54612 -11.80275,-6.84991 z m 313.57812,1.51866 c -7.87576,0.46642 -14.19523,6.90961 -14.38407,14.86582 -0.18442,7.94551 6.05869,14.57286 14.68817,14.16605 8.62961,-0.40676 15.52408,-7.70143 15.17138,-15.77662 -0.35257,-8.06478 -7.60458,-13.7269 -15.47548,-13.25511 z m -155.71292,41.57625 c -5.61395,-0.4827 -11.27663,2.16941 -14.36881,7.27297 -4.12235,6.79562 -2.00688,15.64194 5.67893,19.58922 7.69136,3.94839 17.30282,1.05759 21.01861,-6.11766 3.71009,-7.16994 0.23866,-15.67943 -6.8181,-19.19352 -1.76278,-0.87861 -3.63955,-1.38842 -5.51091,-1.55115 z"
     fill-rule="evenodd"
     id="path2"
     style="stroke-width:1.38849" />
</svg>
