<?xml version="1.0" encoding="UTF-8" standalone="no"?>
<svg
   width="700pt"
   height="700pt"
   version="1.1"
   viewBox="0 0 700 700"
   id="svg172"
   sodipodi:docname="noun-road-4918.svg"
   inkscape:version="1.2 (dc2aedaf03, 2022-05-15)"
   xmlns:inkscape="http://www.inkscape.org/namespaces/inkscape"
   xmlns:sodipodi="http://sodipodi.sourceforge.net/DTD/sodipodi-0.dtd"
   xmlns:xlink="http://www.w3.org/1999/xlink"
   xmlns="http://www.w3.org/2000/svg"
   xmlns:svg="http://www.w3.org/2000/svg">
  <defs
     id="defs176" />
  <sodipodi:namedview
     id="namedview174"
     pagecolor="#ffffff"
     bordercolor="#000000"
     borderopacity="0.25"
     inkscape:showpageshadow="2"
     inkscape:pageopacity="0.0"
     inkscape:pagecheckerboard="0"
     inkscape:deskcolor="#d1d1d1"
     inkscape:document-units="pt"
     showgrid="false"
     inkscape:zoom="1"
     inkscape:cx="468"
     inkscape:cy="394"
     inkscape:window-width="1920"
     inkscape:window-height="1017"
     inkscape:window-x="-8"
     inkscape:window-y="-8"
     inkscape:window-maximized="1"
     inkscape:current-layer="g170" />
  <g
     id="g170">
    <path
       d="m 630.00092,85.45006 c 0,0 -492.62,17.27 -492.62,105.2 0,87.914 188.09,188.93 187.23,239.33 -1.2109,68.582 -191.25,102.03 -254.05,124.43 h 249.29 c 18.28179,0.10633 98.65796,10e-5 198.7061,10e-5 0,0 87.309,-50.309 85.305,-125.43 -2.5078,-93.582 -309.07,-188.77 -307.74,-237.57 1.4102,-51.359 333.89,-68.285 333.89,-68.285 1.0949,-72.844943 -0.0111,17.08272 -0.0111,-37.6751 z"
       id="path90"
       sodipodi:nodetypes="cscccccccc" />
    <use
       x="70"
       y="644"
       xlink:href="#w"
       id="use92" />
    <use
       x="90.550781"
       y="644"
       xlink:href="#b"
       id="use94" />
    <use
       x="104.359375"
       y="644"
       xlink:href="#a"
       id="use96" />
    <use
       x="123.347656"
       y="644"
       xlink:href="#i"
       id="use98" />
    <use
       x="142.242188"
       y="644"
       xlink:href="#e"
       id="use100" />
    <use
       x="155.628906"
       y="644"
       xlink:href="#a"
       id="use102" />
    <use
       x="174.617188"
       y="644"
       xlink:href="#h"
       id="use104" />
    <use
       x="204.410156"
       y="644"
       xlink:href="#g"
       id="use106" />
    <use
       x="224.453125"
       y="644"
       xlink:href="#d"
       id="use108" />
    <use
       x="252.453125"
       y="644"
       xlink:href="#f"
       id="use110" />
    <use
       x="272.617188"
       y="644"
       xlink:href="#a"
       id="use112" />
    <use
       x="291.609375"
       y="644"
       xlink:href="#b"
       id="use114" />
    <use
       x="305.414062"
       y="644"
       xlink:href="#v"
       id="use116" />
    <use
       x="325.460938"
       y="644"
       xlink:href="#a"
       id="use118" />
    <use
       x="344.449219"
       y="644"
       xlink:href="#d"
       id="use120" />
    <use
       x="372.449219"
       y="644"
       xlink:href="#u"
       id="use122" />
    <use
       x="394.148438"
       y="644"
       xlink:href="#b"
       id="use124" />
    <use
       x="407.953125"
       y="644"
       xlink:href="#t"
       id="use126" />
    <use
       x="417.554688"
       y="644"
       xlink:href="#s"
       id="use128" />
    <use
       x="435.804688"
       y="644"
       xlink:href="#c"
       id="use130" />
    <use
       x="455.039062"
       y="644"
       xlink:href="#d"
       id="use132" />
    <use
       x="70"
       y="672"
       xlink:href="#r"
       id="use134" />
    <use
       x="82.183594"
       y="672"
       xlink:href="#b"
       id="use136" />
    <use
       x="95.992188"
       y="672"
       xlink:href="#c"
       id="use138" />
    <use
       x="115.226562"
       y="672"
       xlink:href="#q"
       id="use140" />
    <use
       x="154.152344"
       y="672"
       xlink:href="#e"
       id="use142" />
    <use
       x="167.535156"
       y="672"
       xlink:href="#p"
       id="use144" />
    <use
       x="187.46875"
       y="672"
       xlink:href="#a"
       id="use146" />
    <use
       x="216.207031"
       y="672"
       xlink:href="#o"
       id="use148" />
    <use
       x="239.640625"
       y="672"
       xlink:href="#c"
       id="use150" />
    <use
       x="258.878906"
       y="672"
       xlink:href="#n"
       id="use152" />
    <use
       x="278.8125"
       y="672"
       xlink:href="#m"
       id="use154" />
    <use
       x="308.492188"
       y="672"
       xlink:href="#l"
       id="use156" />
    <use
       x="329.015625"
       y="672"
       xlink:href="#b"
       id="use158" />
    <use
       x="342.820312"
       y="672"
       xlink:href="#c"
       id="use160" />
    <use
       x="362.058594"
       y="672"
       xlink:href="#k"
       id="use162" />
    <use
       x="371.65625"
       y="672"
       xlink:href="#a"
       id="use164" />
    <use
       x="390.648438"
       y="672"
       xlink:href="#j"
       id="use166" />
    <use
       x="407.242188"
       y="672"
       xlink:href="#e"
       id="use168" />
  </g>
</svg>
